<svg id="visual" viewBox="0 0 400 4800" width="400" height="4800" xmlns="http://www.w3.org/2000/svg" xmlns:xlink="http://www.w3.org/1999/xlink" version="1.1"><g><g transform="translate(27 4743)"><path d="M21.6 -22.9C27.8 -20.5 32.5 -13.5 32.9 -6.5C33.4 0.6 29.7 7.8 24.6 12.1C19.6 16.5 13.4 18 7.9 18.8C2.3 19.6 -2.4 19.7 -7.8 18.9C-13.2 18.1 -19.2 16.3 -23 12.2C-26.7 8 -28.1 1.4 -30.5 -8.9C-32.8 -19.1 -36.1 -33 -31.2 -35.6C-26.3 -38.2 -13.1 -29.4 -2.7 -26.1C7.7 -22.9 15.4 -25.2 21.6 -22.9Z" fill="none" stroke="#6a6a6a" stroke-width="1"></path></g><g transform="translate(273 3949)"><path d="M11.1 -12.7C13.7 -11.1 14.5 -6.9 13.7 -3.6C12.8 -0.3 10.2 2 8.6 5.2C7 8.3 6.4 12.2 4.4 13.6C2.3 15 -1.2 14 -4.2 12.5C-7.1 10.9 -9.5 8.9 -10.7 6.4C-11.9 3.9 -11.9 0.9 -11 -1.5C-10.1 -4 -8.3 -5.8 -6.3 -7.5C-4.3 -9.1 -2.1 -10.6 1.1 -11.9C4.3 -13.2 8.6 -14.2 11.1 -12.7Z" fill="none" stroke="#6a6a6a" stroke-width="1"></path></g><g transform="translate(160 1518)"><path d="M14.1 -19.4C16.9 -14.5 16.7 -8.7 18.9 -2.5C21 3.8 25.4 10.5 23.6 13.7C21.8 16.9 13.9 16.5 6.8 19.4C-0.3 22.3 -6.5 28.5 -12.2 28.6C-18 28.7 -23.4 22.6 -27.6 15.7C-31.8 8.8 -34.8 1.1 -31.4 -3.3C-28 -7.7 -18.1 -8.8 -11.8 -13C-5.5 -17.3 -2.8 -24.7 1.5 -26.4C5.7 -28.1 11.3 -24.2 14.1 -19.4Z" fill="none" stroke="#6a6a6a" stroke-width="1"></path></g><g transform="translate(205 467)"><path d="M6.4 -6.4C8.5 -6 10.3 -4.1 11.2 -1.6C12 0.8 11.8 3.7 10.4 5.9C9 8.1 6.5 9.6 3.9 10.4C1.3 11.3 -1.5 11.5 -3.8 10.5C-6 9.6 -7.9 7.6 -8.2 5.5C-8.6 3.3 -7.4 1.1 -7.5 -1.8C-7.5 -4.7 -8.7 -8.2 -7.6 -8.8C-6.6 -9.5 -3.3 -7.3 -0.5 -6.6C2.2 -6 4.4 -6.9 6.4 -6.4Z" fill="none" stroke="#6a6a6a" stroke-width="1"></path></g><g transform="translate(132 869)"><path d="M14.3 -15.3C20.5 -11.9 28.6 -9.2 30.5 -4.5C32.3 0.2 27.8 6.8 24.2 14.8C20.5 22.8 17.8 32.1 12.3 34.3C6.8 36.5 -1.5 31.7 -13.1 30.1C-24.8 28.5 -39.8 30.1 -42.3 24.9C-44.7 19.7 -34.6 7.7 -30.2 -3.2C-25.7 -14.1 -27 -23.9 -22.9 -27.6C-18.9 -31.3 -9.4 -28.8 -2.7 -25.6C4.1 -22.5 8.2 -18.6 14.3 -15.3Z" fill="none" stroke="#6a6a6a" stroke-width="1"></path></g><g transform="translate(22 1148)"><path d="M12.1 -12.5C18.2 -9.3 27.3 -7.9 28 -4.8C28.7 -1.8 20.9 2.9 17 10C13.1 17.1 13.2 26.7 9.4 29.8C5.7 32.9 -1.9 29.4 -8.6 26C-15.4 22.6 -21.3 19.2 -28.3 13.3C-35.2 7.5 -43.2 -0.8 -42.2 -7.6C-41.1 -14.4 -31.1 -19.7 -22.6 -22.5C-14 -25.3 -7 -25.5 -2 -23.1C3 -20.7 6 -15.7 12.1 -12.5Z" fill="none" stroke="#6a6a6a" stroke-width="1"></path></g><g transform="translate(77 2274)"><path d="M15.2 -13.9C21.7 -12.7 30.1 -9.8 30.7 -5.5C31.3 -1.3 24.1 4.2 18.8 8.5C13.5 12.8 10.2 15.9 5.8 18.7C1.5 21.4 -4 23.7 -10 23.4C-16 23 -22.4 19.8 -23.5 15C-24.6 10.2 -20.3 3.7 -19.8 -4.2C-19.3 -12.2 -22.6 -21.5 -19.9 -23.4C-17.3 -25.2 -8.6 -19.5 -2.1 -16.9C4.4 -14.4 8.8 -15.1 15.2 -13.9Z" stroke="#6a6a6a" fill="none" stroke-width="1"></path></g><g transform="translate(376 2471)"><path d="M8 -11.2C11.4 -6.7 16 -5.2 19.9 -0.9C23.7 3.3 26.8 10.3 25.6 17.1C24.5 23.9 19 30.6 12.6 31.5C6.2 32.5 -1.1 27.9 -6.1 23.3C-11.1 18.7 -13.8 14.1 -14.5 9.8C-15.2 5.6 -13.9 1.7 -12.7 -1.7C-11.4 -5 -10.2 -7.9 -8.1 -12.6C-6 -17.3 -3 -23.9 -0.3 -23.5C2.3 -23.1 4.6 -15.6 8 -11.2Z" stroke="#6a6a6a" fill="none" stroke-width="1"></path></g><g transform="translate(63 1909)"><path d="M3.5 -4.2C5.1 -2.8 7.3 -2.2 7.8 -1.1C8.3 0 7 1.6 5.8 3.1C4.7 4.7 3.7 6.1 2.3 6.8C0.9 7.5 -0.9 7.4 -2.5 6.8C-4.1 6.2 -5.5 5.1 -6.3 3.6C-7.1 2.2 -7.4 0.4 -6.8 -0.9C-6.2 -2.2 -4.7 -3 -3.4 -4.5C-2.1 -5.9 -1.1 -8 -0.1 -7.9C0.9 -7.8 1.8 -5.6 3.5 -4.2Z" stroke="#6a6a6a" fill="none" stroke-width="1"></path></g><g transform="translate(393 351)"><path d="M11.8 -14.7C16.1 -10.4 21.1 -7.5 21.8 -3.8C22.4 -0.2 18.8 4.3 16.2 10C13.7 15.8 12.3 22.8 8.5 24.9C4.7 26.9 -1.5 24 -5.2 20.2C-8.9 16.3 -10.1 11.4 -13.3 7.1C-16.5 2.7 -21.8 -1 -23 -5.7C-24.2 -10.4 -21.2 -16.1 -16.7 -20.3C-12.1 -24.6 -6.1 -27.4 -1.2 -26C3.7 -24.6 7.4 -19 11.8 -14.7Z" stroke="#6a6a6a" fill="none" stroke-width="1"></path></g><g transform="translate(193 3606)"><path d="M10.4 -8.6C16.1 -7.6 25.2 -6.8 28.5 -2.8C31.9 1.2 29.5 8.5 25.1 13C20.7 17.6 14.2 19.4 7.8 22C1.4 24.6 -5 27.9 -8.9 25.9C-12.7 23.8 -14.1 16.4 -15.2 10.6C-16.2 4.9 -17 0.9 -15.7 -2.1C-14.4 -5.1 -11 -7.1 -8 -8.6C-5.1 -10.1 -2.5 -11.2 -0.1 -11C2.3 -10.9 4.7 -9.6 10.4 -8.6Z" stroke="#6a6a6a" fill="none" stroke-width="1"></path></g><g transform="translate(221 2510)"><path d="M11.4 -12.6C13.7 -11.6 13.8 -7 13.3 -3.3C12.8 0.4 11.7 3.2 10.1 5.8C8.6 8.4 6.7 10.7 4.6 10.7C2.5 10.6 0.2 8.2 -2.9 7.3C-6.1 6.5 -10 7.3 -12.5 5.8C-15 4.4 -16 0.7 -14.9 -2.1C-13.8 -4.9 -10.6 -6.9 -7.8 -7.7C-4.9 -8.6 -2.5 -8.4 1 -9.6C4.5 -10.8 9.1 -13.5 11.4 -12.6Z" stroke="#6a6a6a" fill="none" stroke-width="1"></path></g><g transform="translate(224 4199)"><path d="M14.7 -16.2C19.3 -13.6 23.6 -9.3 28.8 -1.8C34.1 5.8 40.5 16.4 38.6 24.7C36.7 33.1 26.6 39 16 42.2C5.4 45.3 -5.7 45.6 -15 41.9C-24.2 38.2 -31.8 30.4 -35 21.7C-38.3 13 -37.2 3.3 -36.9 -7.9C-36.5 -19.1 -36.9 -31.8 -30.9 -34.1C-24.9 -36.3 -12.4 -28.2 -3.7 -23.8C5 -19.3 10.1 -18.7 14.7 -16.2Z" stroke="#6a6a6a" fill="none" stroke-width="1"></path></g><g transform="translate(222 1009)"><path d="M23.6 -23.7C31 -21.9 37.8 -14.9 36.5 -8.5C35.2 -2 25.9 3.8 21.2 12.6C16.5 21.4 16.5 33.3 12.4 35.3C8.4 37.3 0.3 29.3 -7.4 24.6C-15.1 20 -22.6 18.6 -26 14.2C-29.5 9.9 -29 2.4 -29.6 -7.1C-30.2 -16.6 -31.8 -28.2 -27 -30.4C-22.2 -32.6 -11.1 -25.4 -1.5 -23.6C8.1 -21.8 16.2 -25.4 23.6 -23.7Z" stroke="#6a6a6a" fill="none" stroke-width="1"></path></g><g transform="translate(226 2832)"><path d="M8.3 -10.3C10.5 -7.9 12 -5.2 12.5 -2.2C13 0.7 12.5 3.8 11.4 7.6C10.4 11.3 8.9 15.8 5.7 17.9C2.5 20 -2.3 19.8 -5.5 17.5C-8.7 15.3 -10.4 11.1 -12 7.4C-13.7 3.6 -15.4 0.3 -15.6 -3.5C-15.8 -7.3 -14.5 -11.5 -11.7 -13.8C-8.8 -16.1 -4.4 -16.4 -0.7 -15.5C3 -14.7 6 -12.7 8.3 -10.3Z" stroke="#6a6a6a" fill="none" stroke-width="1"></path></g><g transform="translate(93 4124)"><path d="M21.7 -24C29.3 -19.5 37.4 -13.8 40.9 -5.5C44.3 2.7 43.1 13.4 38.3 22.4C33.5 31.5 25.1 38.8 15.3 42.6C5.5 46.4 -5.8 46.7 -11.4 40.7C-16.9 34.6 -16.7 22.1 -20.8 13C-24.8 3.9 -33.2 -1.7 -35.4 -9.2C-37.6 -16.7 -33.7 -26.1 -26.7 -30.6C-19.8 -35.2 -9.9 -35 -1.4 -33.3C7.1 -31.6 14.1 -28.4 21.7 -24Z" stroke="#6a6a6a" fill="none" stroke-width="1"></path></g><g transform="translate(389 4667)"><path d="M11 -10.5C15.9 -9.1 22.5 -7.1 27.2 -1.6C32 3.9 34.9 12.8 31.6 18.1C28.4 23.4 19 25 10.3 28C1.6 31.1 -6.6 35.7 -12.6 33.8C-18.6 32 -22.6 23.7 -24.7 16.2C-26.8 8.7 -26.9 1.9 -26.5 -5.3C-26 -12.6 -24.9 -20.5 -20.4 -22C-15.9 -23.5 -7.9 -18.6 -2.4 -15.7C3.1 -12.9 6.2 -12 11 -10.5Z" stroke="#6a6a6a" fill="none" stroke-width="1"></path></g><g transform="translate(395 3041)"><path d="M19.8 -24.2C27.8 -16.8 37.9 -12.7 38 -7.4C38.2 -2.1 28.3 4.3 21.1 8C14 11.7 9.5 12.6 3.5 18.9C-2.5 25.2 -10.1 36.7 -14.6 36.6C-19.1 36.4 -20.7 24.7 -24.6 15.4C-28.6 6.2 -34.9 -0.6 -33.2 -5.1C-31.5 -9.6 -21.7 -12 -14.9 -19.5C-8 -27.1 -4 -39.9 0.9 -41C5.9 -42.1 11.8 -31.6 19.8 -24.2Z" stroke="#6a6a6a" fill="none" stroke-width="1"></path></g><g transform="translate(194 3146)"><path d="M8.3 -8.9C11.3 -7.3 14.8 -5.3 16.6 -1.9C18.4 1.5 18.6 6.2 16.7 9.9C14.8 13.6 10.9 16.3 7 16.5C3.2 16.7 -0.6 14.3 -4 12.4C-7.4 10.6 -10.4 9.1 -11.8 6.8C-13.3 4.4 -13.2 1 -12.3 -1.9C-11.4 -4.8 -9.8 -7.2 -7.6 -9C-5.4 -10.9 -2.7 -12 -0.1 -12C2.6 -11.9 5.2 -10.6 8.3 -8.9Z" stroke="#6a6a6a" fill="none" stroke-width="1"></path></g><g transform="translate(364 1005)"><path d="M24.5 -28.6C32.4 -22.7 39.6 -15.5 38.8 -8.6C37.9 -1.7 29 5 22.2 9C15.3 13.1 10.6 14.7 6.1 16C1.6 17.2 -2.7 18.2 -11.7 20.2C-20.8 22.1 -34.6 25 -42.2 20.3C-49.8 15.5 -51.2 3.1 -49 -8.6C-46.8 -20.3 -41.1 -31.3 -32.4 -37C-23.6 -42.7 -11.8 -43.1 -1.7 -41C8.4 -39 16.7 -34.4 24.5 -28.6Z" stroke="#6a6a6a" fill="none" stroke-width="1"></path></g><g transform="translate(339 774)"><path d="M19 -20C25.3 -17.3 31.5 -12 31 -6.7C30.4 -1.4 23.1 3.8 17.9 8.1C12.8 12.5 9.9 15.8 5.2 20C0.6 24.1 -5.9 29 -12.2 28.8C-18.6 28.5 -24.8 23.2 -27.6 16.7C-30.5 10.2 -29.9 2.5 -29.4 -5.9C-28.8 -14.4 -28.1 -23.6 -23.2 -26.5C-18.3 -29.4 -9.2 -26.1 -1.4 -24.4C6.3 -22.7 12.7 -22.7 19 -20Z" stroke="#6a6a6a" fill="none" stroke-width="1"></path></g><g transform="translate(248 2369)"><path d="M11.3 -12.3C13.8 -11.3 14.4 -7 14.3 -3.2C14.2 0.6 13.3 3.9 11.7 6.7C10 9.4 7.5 11.7 5 11.6C2.6 11.5 0 9.2 -2.3 7.7C-4.7 6.3 -6.9 5.8 -8 4.4C-9 3 -8.9 0.7 -9.1 -2.3C-9.4 -5.3 -10 -9 -8.6 -10.2C-7.1 -11.4 -3.6 -10 0.4 -10.5C4.4 -11 8.8 -13.3 11.3 -12.3Z" stroke="#6a6a6a" fill="none" stroke-width="1"></path></g><g transform="translate(259 1857)"><path d="M21.4 -26.2C25.5 -22 25.3 -13.2 24.8 -5.8C24.4 1.5 23.8 7.5 21.9 14.5C20 21.5 16.9 29.6 10.2 35.2C3.5 40.7 -6.7 43.7 -13.7 40.1C-20.6 36.5 -24.3 26.3 -25 17.9C-25.8 9.5 -23.6 2.8 -24.6 -6.5C-25.5 -15.9 -29.5 -27.9 -26 -32.3C-22.4 -36.6 -11.2 -33.3 -1.3 -31.7C8.6 -30.2 17.2 -30.4 21.4 -26.2Z" stroke="#6a6a6a" fill="none" stroke-width="1"></path></g><g transform="translate(372 3505)"><path d="M24 -28.1C30 -23.5 33.2 -14.9 31.9 -7.7C30.7 -0.5 25.1 5.3 19.8 8.6C14.6 11.9 9.7 12.5 4.1 17.1C-1.5 21.7 -7.8 30.2 -12 29.9C-16.3 29.7 -18.5 20.8 -22.2 13.3C-25.9 5.8 -31.1 -0.3 -30.2 -5.3C-29.3 -10.3 -22.2 -14.2 -16.2 -18.9C-10.1 -23.5 -5.1 -28.8 1.9 -31.2C9 -33.5 17.9 -32.8 24 -28.1Z" stroke="#6a6a6a" fill="none" stroke-width="1"></path></g><g transform="translate(71 1709)"><path d="M8.3 -12.1C9.3 -9.1 7.8 -5.1 7.4 -2C7.1 1 7.9 3 7.5 4.7C7 6.3 5.1 7.6 2.9 8.8C0.6 10.1 -2 11.3 -5 11.3C-8 11.2 -11.4 9.9 -13.6 7.3C-15.8 4.7 -16.7 0.8 -14.8 -1.4C-12.9 -3.5 -8.3 -4 -5.4 -6.7C-2.5 -9.4 -1.2 -14.5 1.2 -15.9C3.6 -17.4 7.3 -15.2 8.3 -12.1Z" stroke="#6a6a6a" fill="none" stroke-width="1"></path></g><g transform="translate(58 351)"><path d="M14.1 -17.6C17 -14.4 17.2 -8.7 17.5 -3.6C17.7 1.4 17.9 5.9 16.4 10.5C15 15.1 11.9 19.7 7.8 20.9C3.8 22.1 -1.3 19.9 -6.1 17.7C-11 15.6 -15.5 13.6 -17.4 10.2C-19.3 6.7 -18.4 1.8 -17 -2.5C-15.7 -6.7 -13.7 -10.3 -10.7 -13.6C-7.8 -16.9 -3.9 -19.8 0.8 -20.8C5.6 -21.8 11.2 -20.9 14.1 -17.6Z" stroke="#6a6a6a" fill="none" stroke-width="1"></path></g><g transform="translate(54 2550)"><path d="M11.4 -12.8C14.4 -11.1 16.1 -7.1 16 -3.5C15.9 0.2 13.9 3.5 12.1 7.3C10.3 11 8.7 15.1 5.4 17.3C2.2 19.5 -2.5 19.8 -4.5 17C-6.5 14.3 -5.7 8.6 -6 5C-6.2 1.4 -7.6 -0.1 -8.7 -2.9C-9.8 -5.6 -10.7 -9.7 -9.2 -11.7C-7.7 -13.6 -3.8 -13.5 0.2 -13.7C4.2 -13.9 8.4 -14.5 11.4 -12.8Z" stroke="#6a6a6a" fill="none" stroke-width="1"></path></g><g transform="translate(244 197)"><path d="M14 -14C20.7 -11.2 30.3 -9.1 31.3 -5.2C32.3 -1.4 24.8 4.3 20.9 13C17 21.7 16.7 33.4 12.5 35.4C8.3 37.4 0.2 29.7 -9.9 26.4C-20 23.1 -32 24.3 -33.5 20.1C-35.1 16 -26.1 6.5 -22 -1.7C-18 -9.9 -18.9 -16.7 -16 -20.2C-13.2 -23.7 -6.6 -23.9 -1.4 -22.2C3.7 -20.5 7.4 -16.8 14 -14Z" stroke="#6a6a6a" fill="none" stroke-width="1"></path></g><g transform="translate(315 3766)"><path d="M25.3 -29.9C32.1 -24.5 36.3 -15.8 38.4 -6.4C40.4 3 40.4 13.2 35.5 19.4C30.6 25.6 20.8 28 11.5 31.2C2.2 34.5 -6.7 38.6 -11.3 35.2C-15.9 31.7 -16.3 20.7 -19.9 12.5C-23.5 4.2 -30.3 -1.1 -32.5 -8.7C-34.7 -16.3 -32.3 -26 -26.1 -31.5C-20 -37 -10 -38.2 -0.3 -37.8C9.3 -37.4 18.6 -35.3 25.3 -29.9Z" stroke="#6a6a6a" fill="none" stroke-width="1"></path></g><g transform="translate(345 506)"><path d="M21.5 -26C26.1 -21.9 26.6 -13.3 25.6 -6.3C24.7 0.7 22.4 6.1 19.5 11.5C16.7 17 13.4 22.4 9 23.6C4.5 24.8 -1.1 21.7 -9.2 20.8C-17.4 19.8 -27.9 21 -32.1 17C-36.3 13 -34 3.7 -30.2 -3.2C-26.4 -10 -21.1 -14.4 -15.8 -18.4C-10.5 -22.4 -5.3 -26 1.6 -27.9C8.5 -29.9 17 -30.2 21.5 -26Z" stroke="#6a6a6a" fill="none" stroke-width="1"></path></g><g transform="translate(106 3272)"><path d="M7 -8.2C8 -7.4 7.2 -4.3 8.5 -1C9.7 2.4 13 5.9 12.4 7.3C11.7 8.7 7.2 8.1 3.8 8.7C0.3 9.2 -2.2 10.9 -3.5 10.2C-4.8 9.4 -4.9 6.2 -6 3.7C-7 1.3 -8.9 -0.3 -9.1 -1.9C-9.2 -3.6 -7.5 -5.2 -5.6 -5.9C-3.8 -6.6 -1.9 -6.3 0.5 -6.9C2.9 -7.6 5.9 -9.1 7 -8.2Z" stroke="#6a6a6a" fill="none" stroke-width="1"></path></g><g transform="translate(44 4561)"><path d="M21.4 -24.3C26.6 -21.1 29 -13.3 26.8 -7.4C24.6 -1.5 17.9 2.4 14.6 8.8C11.4 15.1 11.6 23.8 7.7 28.3C3.8 32.8 -4.2 33.1 -8 28.8C-11.9 24.5 -11.7 15.5 -16 8.9C-20.3 2.2 -29.1 -2.3 -29.9 -6.5C-30.6 -10.8 -23.3 -15 -17 -17.9C-10.7 -20.9 -5.3 -22.7 1.4 -24.3C8.1 -25.9 16.2 -27.4 21.4 -24.3Z" stroke="#6a6a6a" fill="none" stroke-width="1"></path></g><g transform="translate(215 1378)"><path d="M19.3 -23.9C27.3 -16.3 37.6 -12.4 38.5 -6.9C39.3 -1.3 30.8 5.8 24.5 11.7C18.2 17.7 14.1 22.5 6.8 30C-0.4 37.5 -10.8 47.8 -17.2 46C-23.6 44.2 -26.1 30.3 -27.8 19.7C-29.5 9.2 -30.3 1.8 -30.5 -6.7C-30.6 -15.3 -30 -25.1 -24.8 -33.2C-19.6 -41.3 -9.8 -47.7 -2.1 -45.3C5.7 -42.8 11.3 -31.5 19.3 -23.9Z" stroke="#6a6a6a" fill="none" stroke-width="1"></path></g><g transform="translate(381 1556)"><path d="M4.2 -4.9C5.1 -4.2 5.2 -2.6 5 -1.2C4.8 0.1 4.3 1.1 4.1 3.1C3.8 5 3.8 7.8 2.7 8.9C1.5 10 -0.9 9.5 -2.6 8.3C-4.4 7.2 -5.5 5.5 -6.1 3.8C-6.7 2.1 -6.8 0.5 -6.6 -1.3C-6.5 -3.1 -6.1 -4.9 -4.9 -5.5C-3.8 -6.1 -1.9 -5.4 -0.1 -5.3C1.6 -5.1 3.3 -5.5 4.2 -4.9Z" stroke="#6a6a6a" fill="none" stroke-width="1"></path></g><g transform="translate(180 4617)"><path d="M9.1 -10.9C10.3 -9.9 8.7 -5.6 9.6 -1.5C10.5 2.5 14 6.3 13.2 7.6C12.4 8.9 7.4 7.8 3.6 8.7C-0.2 9.6 -2.9 12.5 -5.6 12.6C-8.3 12.8 -10.9 10.3 -13 7.3C-15.1 4.2 -16.6 0.5 -14.9 -1.6C-13.3 -3.7 -8.6 -4.2 -5.6 -4.9C-2.6 -5.6 -1.3 -6.5 1.3 -8.1C4 -9.6 7.9 -11.9 9.1 -10.9Z" stroke="#6a6a6a" fill="none" stroke-width="1"></path></g><g transform="translate(22 3065)"><path d="M26.8 -31.4C33.1 -26.6 35.5 -16.6 33.8 -8.6C32 -0.6 26.1 5.5 21.3 11C16.6 16.4 13 21.2 7.5 25.1C2.1 29.1 -5.4 32.1 -9.7 29.3C-14 26.5 -15.2 18 -17.4 11.4C-19.6 4.8 -22.9 0.1 -22.8 -4.7C-22.8 -9.4 -19.4 -14.2 -15 -19.4C-10.6 -24.5 -5.3 -30.1 2.4 -33C10.2 -35.9 20.4 -36.2 26.8 -31.4Z" stroke="#6a6a6a" fill="none" stroke-width="1"></path></g><g transform="translate(316 3237)"><path d="M28.4 -35.7C31.8 -30.9 26.2 -17.3 22.2 -8.6C18.2 0.1 15.7 3.9 14.9 11.7C14.1 19.4 14.9 31.2 9.4 38.9C3.9 46.6 -7.8 50.2 -14.5 45.4C-21.1 40.5 -22.5 27.2 -22.1 17.7C-21.6 8.3 -19.1 2.7 -18 -3.1C-16.9 -8.8 -17 -14.6 -14.2 -19.5C-11.4 -24.4 -5.7 -28.4 3.4 -32.4C12.5 -36.5 25 -40.5 28.4 -35.7Z" stroke="#6a6a6a" fill="none" stroke-width="1"></path></g><g transform="translate(151 2128)"><path d="M14.6 -14.8C21.3 -11.7 30.8 -9.4 35.1 -3.5C39.4 2.5 38.4 12.1 33.9 19.2C29.3 26.4 21.2 31.2 14 30.2C6.8 29.1 0.6 22.4 -6.4 19.1C-13.3 15.9 -20.9 16.2 -27.2 12.3C-33.5 8.4 -38.6 0.4 -36 -4.9C-33.4 -10.2 -23.1 -12.8 -15.8 -15.8C-8.6 -18.8 -4.3 -22.3 -0.2 -22.1C3.9 -21.9 7.9 -18 14.6 -14.8Z" stroke="#6a6a6a" fill="none" stroke-width="1"></path></g><g transform="translate(124 59)"><path d="M16.4 -20.9C20.6 -16 22.8 -10.2 23.2 -4.6C23.6 1 22.1 6.5 18.8 9.7C15.5 12.8 10.4 13.8 6.4 13.5C2.4 13.1 -0.6 11.5 -5.5 11.4C-10.4 11.3 -17.3 12.6 -20.5 10.3C-23.6 7.9 -23.2 2 -21.6 -3.3C-20 -8.5 -17.3 -13 -13.5 -17.9C-9.8 -22.9 -4.9 -28.4 0.6 -29.2C6.1 -29.9 12.2 -25.9 16.4 -20.9Z" stroke="#6a6a6a" fill="none" stroke-width="1"></path></g><g transform="translate(20 3708)"><path d="M11.9 -14.6C13.5 -12.9 11.5 -7.3 11.1 -2.9C10.7 1.4 11.9 4.5 12.3 10.1C12.7 15.8 12.2 24.1 8.5 27C4.8 30 -2.2 27.6 -8.7 24.8C-15.2 22 -21.1 18.8 -22.4 14.1C-23.6 9.5 -20.2 3.3 -17.4 -1.5C-14.7 -6.2 -12.7 -9.4 -9.9 -11C-7.1 -12.5 -3.5 -12.3 0.8 -13.2C5.2 -14.2 10.3 -16.3 11.9 -14.6Z" stroke="#6a6a6a" fill="none" stroke-width="1"></path></g><g transform="translate(390 4491)"><path d="M6.7 -5.7C9.9 -5.3 14.4 -4.3 14.9 -2.5C15.4 -0.7 11.8 2 9 3.5C6.1 4.9 4 5.1 2.2 5.4C0.5 5.7 -1 6.2 -2.3 5.9C-3.5 5.5 -4.7 4.4 -6.2 3C-7.8 1.5 -9.9 -0.3 -10.8 -3.1C-11.6 -5.8 -11.4 -9.6 -9.4 -10.2C-7.5 -10.8 -3.7 -8.2 -1 -7.1C1.8 -5.9 3.5 -6.1 6.7 -5.7Z" stroke="#6a6a6a" fill="none" stroke-width="1"></path></g><g transform="translate(343 4086)"><path d="M27.8 -32.5C32.6 -29.2 30.4 -17.1 32.1 -5.9C33.8 5.3 39.3 15.6 36.2 20.7C33 25.8 21.2 25.7 11.6 27.1C2.1 28.5 -5.2 31.3 -13.2 30.7C-21.1 30.1 -29.9 26.2 -34.3 19.4C-38.8 12.6 -38.9 2.9 -34.7 -3.6C-30.6 -10.1 -22.2 -13.2 -15.7 -16.2C-9.2 -19.1 -4.6 -21.7 3.5 -25.9C11.6 -30 23.1 -35.7 27.8 -32.5Z" stroke="#6a6a6a" fill="none" stroke-width="1"></path></g><g transform="translate(29 3554)"><path d="M22.5 -25.7C28.6 -21.7 32.6 -14 30.6 -8C28.6 -1.9 20.6 2.7 17.4 11.7C14.2 20.7 15.8 34.2 10.7 41C5.7 47.9 -6 48.1 -15.7 44.2C-25.4 40.2 -33.2 31.9 -35.9 22.9C-38.6 13.8 -36.2 3.9 -33.7 -5.1C-31.1 -14.2 -28.5 -22.5 -22.8 -26.6C-17.2 -30.7 -8.6 -30.7 -0.2 -30.4C8.2 -30.2 16.4 -29.7 22.5 -25.7Z" stroke="#6a6a6a" fill="none" stroke-width="1"></path></g><g transform="translate(125 3848)"><path d="M9.3 -11.2C11.1 -9.7 10.7 -5.7 10.8 -2.4C10.8 1 11.3 3.9 10.5 7C9.8 10 7.9 13.3 5.6 13.1C3.4 12.8 0.7 9.1 -1.9 7.3C-4.5 5.4 -7.1 5.5 -9.8 4.1C-12.6 2.6 -15.6 -0.3 -15.6 -3.2C-15.6 -6 -12.6 -8.7 -9.5 -10C-6.4 -11.3 -3.2 -11.1 0.3 -11.5C3.8 -11.9 7.6 -12.7 9.3 -11.2Z" stroke="#6a6a6a" fill="none" stroke-width="1"></path></g><g transform="translate(392 1269)"><path d="M26.1 -29.6C34.5 -24 42.6 -16.5 42.1 -9C41.5 -1.5 32.4 6 25.2 11C18 16 12.8 18.5 6.2 24C-0.5 29.5 -8.7 38 -16 37.9C-23.4 37.9 -29.8 29.4 -30 21.2C-30.1 12.9 -24 4.9 -23.5 -5.2C-23 -15.3 -28.1 -27.4 -25.1 -34C-22.1 -40.7 -11.1 -41.7 -1.1 -40.4C8.8 -39.1 17.6 -35.3 26.1 -29.6Z" stroke="#6a6a6a" fill="none" stroke-width="1"></path></g><g transform="translate(256 3411)"><path d="M10 -10.6C13.7 -8.8 18 -6.4 19.6 -2.7C21.1 1 19.9 5.9 17.3 9.6C14.7 13.4 10.8 16.1 6.6 17.2C2.5 18.2 -1.9 17.7 -3.9 15C-5.8 12.4 -5.4 7.6 -7 4.3C-8.6 1 -12.2 -0.9 -13.4 -3.8C-14.6 -6.7 -13.4 -10.6 -10.8 -12.7C-8.2 -14.7 -4.1 -14.8 -0.5 -14.2C3.1 -13.6 6.3 -12.4 10 -10.6Z" stroke="#6a6a6a" fill="none" stroke-width="1"></path></g><g transform="translate(15 2908)"><path d="M17.3 -21.8C21.1 -17.5 21.7 -10.7 25.5 -2.5C29.2 5.7 36.1 15.3 35.2 23.4C34.2 31.6 25.3 38.4 15.8 40.8C6.3 43.1 -3.9 41 -14 37.7C-24 34.3 -33.8 29.7 -38.1 22.1C-42.5 14.4 -41.3 3.7 -39.3 -6.8C-37.3 -17.2 -34.3 -27.3 -27.6 -31C-20.9 -34.8 -10.4 -32.2 -1.8 -30.1C6.8 -27.9 13.6 -26.1 17.3 -21.8Z" stroke="#6a6a6a" fill="none" stroke-width="1"></path></g><g transform="translate(394 2307)"><path d="M15.3 -17.3C19.9 -14.3 23.8 -9.6 22.9 -5.4C21.9 -1.3 16.1 2.3 13.4 8.4C10.7 14.6 11.1 23.2 8 26C4.9 28.9 -1.7 26 -5.6 21.8C-9.4 17.6 -10.5 12.1 -11.7 7.8C-12.9 3.5 -14.2 0.4 -15.9 -5C-17.5 -10.3 -19.4 -17.9 -16.8 -21.3C-14.2 -24.6 -7.1 -23.8 -0.9 -22.7C5.3 -21.7 10.6 -20.3 15.3 -17.3Z" stroke="#6a6a6a" fill="none" stroke-width="1"></path></g><g transform="translate(349 2085)"><path d="M7.4 -8.5C8.4 -7.9 7.4 -4.5 7.6 -1.6C7.8 1.4 9.4 3.9 8.6 4.7C7.8 5.6 4.6 4.8 2.2 5.4C-0.3 6 -2 8 -3.6 8.2C-5.3 8.4 -7 6.7 -7.8 4.7C-8.6 2.8 -8.5 0.7 -8.3 -1.6C-8 -3.8 -7.5 -6.1 -6.1 -6.6C-4.7 -7.2 -2.3 -6 0.4 -6.5C3.2 -7 6.3 -9.2 7.4 -8.5Z" stroke="#6a6a6a" fill="none" stroke-width="1"></path></g><g transform="translate(12 3943)"><path d="M27.7 -36.5C31.5 -29.9 27.2 -16.9 25.9 -7.1C24.5 2.7 26.3 9.4 26.3 20.6C26.3 31.8 24.7 47.5 17.8 50.7C11 53.9 -0.9 44.6 -9.5 36.8C-18.1 29.1 -23.3 22.8 -24.8 16.3C-26.2 9.7 -23.8 3 -25.8 -7.8C-27.8 -18.7 -34.2 -33.5 -30.7 -40.2C-27.1 -46.8 -13.5 -45.2 -0.8 -44.3C12 -43.3 23.9 -43.1 27.7 -36.5Z" stroke="#6a6a6a" fill="none" stroke-width="1"></path></g><g transform="translate(339 1693)"><path d="M12.9 -14.6C19.5 -9.8 29.6 -8.4 30.7 -5C31.8 -1.6 23.9 3.8 19.6 11.3C15.3 18.9 14.6 28.5 9.7 33.1C4.8 37.7 -4.3 37.3 -11.7 33.9C-19.1 30.4 -24.8 24 -28.6 16.8C-32.5 9.6 -34.4 1.6 -31.3 -3.7C-28.1 -9 -20 -11.5 -13.9 -16.4C-7.9 -21.3 -3.9 -28.6 -0.4 -28.1C3.1 -27.6 6.3 -19.4 12.9 -14.6Z" stroke="#6a6a6a" fill="none" stroke-width="1"></path></g><g transform="translate(15 4400)"><path d="M3.7 -5C4.5 -3.7 4.7 -2.3 5.1 -0.7C5.6 0.8 6.3 2.4 5.8 3.5C5.4 4.7 3.8 5.3 2.1 6C0.4 6.7 -1.3 7.4 -2.9 7.2C-4.5 6.9 -6 5.6 -7.8 3.9C-9.6 2.1 -11.6 -0.2 -11.7 -2.5C-11.8 -4.8 -10 -7.2 -7.7 -8.3C-5.4 -9.4 -2.7 -9.1 -0.6 -8.3C1.4 -7.6 2.8 -6.3 3.7 -5Z" stroke="#6a6a6a" fill="none" stroke-width="1"></path></g><g transform="translate(233 4452)"><path d="M21.9 -29.7C25.2 -23.3 22.5 -13.4 22.1 -5.4C21.8 2.7 23.9 8.8 21.9 13.1C20 17.4 14.1 19.9 7.5 23.5C1 27.1 -6.2 31.8 -14.9 32.4C-23.7 33 -34.1 29.3 -38.4 22.1C-42.6 14.9 -40.8 4 -36.8 -4.5C-32.9 -12.9 -27 -19 -20.5 -24.8C-14 -30.6 -7 -36.2 1.1 -37.6C9.3 -39 18.6 -36.1 21.9 -29.7Z" stroke="#6a6a6a" fill="none" stroke-width="1"></path></g><g transform="translate(81 2771)"><path d="M16.3 -17.2C23.5 -13.4 33.4 -10.5 34 -6.1C34.6 -1.8 25.9 4.1 19.4 7.3C12.9 10.5 8.5 10.9 3.3 15.7C-1.9 20.5 -8 29.5 -13.3 30.3C-18.7 31.1 -23.4 23.7 -27.6 16.1C-31.8 8.5 -35.5 0.8 -33.5 -5.1C-31.5 -11 -23.8 -15.1 -17.3 -19.1C-10.7 -23.1 -5.4 -27 -0.4 -26.5C4.5 -26 9.1 -21.1 16.3 -17.2Z" stroke="#6a6a6a" fill="none" stroke-width="1"></path></g><g transform="translate(209 636)"><path d="M22.9 -29.9C26.5 -24.4 23.9 -14.1 24.8 -5C25.7 4.1 30.1 12 27.8 16.1C25.5 20.1 16.5 20.3 9.3 21C2 21.7 -3.4 23 -11 23.3C-18.7 23.5 -28.5 22.8 -34.3 17.5C-40.2 12.2 -42.1 2.2 -38.8 -5.1C-35.4 -12.5 -26.9 -17.2 -19.6 -22.1C-12.3 -26.9 -6.1 -31.8 1.8 -33.9C9.7 -36.1 19.4 -35.4 22.9 -29.9Z" stroke="#6a6a6a" fill="none" stroke-width="1"></path></g><g transform="translate(195 4798)"><path d="M11.1 -11.3C15.5 -9.6 20.8 -7.1 21.3 -3.9C21.7 -0.6 17.2 3.3 15 10C12.7 16.6 12.8 26 9.5 28C6.2 30 -0.5 24.8 -7.4 21.7C-14.4 18.6 -21.7 17.7 -28 13.1C-34.4 8.5 -39.7 0.3 -38.4 -6.8C-37.2 -13.8 -29.3 -19.7 -21.8 -20.9C-14.3 -22.1 -7.2 -18.6 -1.9 -16.4C3.4 -14.1 6.8 -13.1 11.1 -11.3Z" stroke="#6a6a6a" fill="none" stroke-width="1"></path></g><g transform="translate(239 2663)"><path d="M22.5 -31.8C24.8 -25 19.2 -13.7 19.7 -4.4C20.2 4.8 26.7 12 26.6 18.2C26.5 24.5 19.6 29.7 11.4 33.7C3.2 37.7 -6.3 40.5 -11.5 36.4C-16.7 32.4 -17.6 21.6 -18.2 13.8C-18.7 6 -18.9 1.3 -18.9 -4.2C-19 -9.7 -18.8 -15.9 -15.6 -22.6C-12.4 -29.3 -6.2 -36.4 2 -38.7C10.1 -41.1 20.3 -38.6 22.5 -31.8Z" stroke="#6a6a6a" fill="none" stroke-width="1"></path></g><g transform="translate(5 1373)"><path d="M26.9 -29.3C32.4 -27.4 32.6 -16.6 31.1 -8C29.7 0.6 26.5 7.1 22.6 12.4C18.8 17.8 14.2 22.2 8 26.3C1.8 30.5 -6.1 34.4 -14.8 34.1C-23.5 33.8 -32.9 29.1 -36.7 21.7C-40.4 14.2 -38.4 3.9 -33.7 -3C-28.9 -9.8 -21.5 -13.2 -15.4 -15C-9.3 -16.7 -4.7 -16.8 3 -20.4C10.7 -24 21.4 -31.1 26.9 -29.3Z" stroke="#6a6a6a" fill="none" stroke-width="1"></path></g><g transform="translate(323 4328)"><path d="M9.6 -9.1C13.5 -8.2 18.4 -6.1 20.4 -2.5C22.5 1.2 21.6 6.6 19.4 12C17.3 17.5 13.8 23 9.1 24.6C4.3 26.2 -1.8 23.9 -5.7 20.4C-9.6 16.9 -11.3 12.2 -14.7 7.8C-18 3.4 -22.9 -0.8 -22 -3.5C-21.1 -6.3 -14.3 -7.6 -9.7 -8.4C-5 -9.2 -2.5 -9.5 0.2 -9.7C2.9 -9.9 5.7 -10 9.6 -9.1Z" stroke="#6a6a6a" fill="none" stroke-width="1"></path></g><g transform="translate(72 528)"><path d="M8.3 -8.8C10.6 -7.8 12.5 -5.2 12.5 -2.6C12.6 0.1 10.9 2.7 9.1 4.9C7.4 7.1 5.6 8.9 3.1 10.9C0.5 12.9 -2.9 15.1 -6 14.8C-9.1 14.4 -11.9 11.5 -12 8.4C-12 5.3 -9.3 2.1 -9.2 -2.1C-9 -6.3 -11.5 -11.5 -10.4 -12.7C-9.3 -13.9 -4.7 -11.2 -0.9 -10.2C2.9 -9.2 5.9 -9.8 8.3 -8.8Z" stroke="#6a6a6a" fill="none" stroke-width="1"></path></g><g transform="translate(207 1197)"><path d="M28.6 -38.1C33.1 -30.4 29.8 -17.6 26.4 -8.8C23 0 19.5 4.6 16.6 9.5C13.7 14.4 11.3 19.5 7.1 22.3C2.8 25.1 -3.4 25.6 -10.8 24.9C-18.2 24.3 -26.9 22.4 -30.1 17.2C-33.4 12 -31.1 3.5 -30.2 -5.9C-29.2 -15.3 -29.5 -25.4 -24.7 -33C-19.9 -40.6 -10 -45.6 1.1 -46.9C12.1 -48.2 24.2 -45.7 28.6 -38.1Z" stroke="#6a6a6a" fill="none" stroke-width="1"></path></g><g transform="translate(366 2871)"><path d="M18.6 -20.6C24.3 -17.4 29.3 -11.7 29.1 -6.1C28.9 -0.6 23.4 4.9 19.3 10.3C15.2 15.8 12.4 21.2 7.2 25.7C1.9 30.2 -5.9 33.9 -15.1 33.8C-24.2 33.8 -34.8 30 -41.8 22.1C-48.8 14.2 -52.2 2.2 -50.2 -8.8C-48.2 -19.9 -41 -30 -31.7 -32.6C-22.5 -35.1 -11.2 -30 -2.4 -27.2C6.5 -24.3 12.9 -23.7 18.6 -20.6Z" stroke="#6a6a6a" fill="none" stroke-width="1"></path></g><g transform="translate(21 174)"><path d="M29.8 -36.9C36.9 -29.6 39.7 -18.5 38.9 -8.9C38.2 0.6 33.8 8.8 27.5 12.4C21.3 15.9 13.2 14.9 5.2 20.6C-2.8 26.3 -10.7 38.6 -15 38.3C-19.3 38 -20 25 -20.6 15.8C-21.2 6.7 -21.7 1.4 -20.5 -3.3C-19.3 -8 -16.4 -12 -12.7 -19.9C-9 -27.8 -4.5 -39.5 3.4 -43.6C11.4 -47.7 22.7 -44.1 29.8 -36.9Z" stroke="#6a6a6a" fill="none" stroke-width="1"></path></g><g transform="translate(382 2615)"><path d="M8.9 -8.8C11.5 -8.4 13.6 -5.6 13.7 -2.7C13.9 0.2 12.1 3.1 10.1 5C8 7 5.7 8.1 3.3 8.9C0.9 9.8 -1.6 10.4 -2.9 9.3C-4.3 8.3 -4.6 5.5 -7 3.2C-9.4 0.8 -13.9 -1.2 -15 -4C-16 -6.7 -13.7 -10.2 -10.7 -10.5C-7.6 -10.9 -3.8 -8.2 -0.3 -7.8C3.1 -7.4 6.2 -9.3 8.9 -8.8Z" stroke="#6a6a6a" fill="none" stroke-width="1"></path></g><g transform="translate(34 691)"><path d="M9.8 -11.4C11.3 -10.3 10.2 -6 9.5 -2.8C8.7 0.5 8.4 2.5 7.7 5.1C7 7.7 6 10.8 3.8 12.6C1.5 14.4 -2 14.9 -5.3 13.9C-8.6 13 -11.5 10.7 -13.9 7.6C-16.2 4.4 -17.8 0.5 -16 -1.7C-14.3 -3.9 -9.2 -4.4 -5.9 -5.2C-2.7 -6 -1.4 -7.1 1.4 -8.7C4.1 -10.4 8.2 -12.5 9.8 -11.4Z" stroke="#6a6a6a" fill="none" stroke-width="1"></path></g><g transform="translate(8 998)"><path d="M12.7 -14.3C14.6 -13.5 13.2 -7.8 14.1 -2.5C15 2.8 18.3 7.6 17.6 11.5C17 15.3 12.3 18.1 7.5 19C2.8 20 -1.9 19.2 -5.5 17.1C-9.1 14.9 -11.5 11.5 -12.8 8C-14.1 4.5 -14.3 1 -14.6 -3.5C-14.9 -8 -15.4 -13.4 -12.9 -14.1C-10.5 -14.9 -5.3 -10.9 0 -11C5.4 -11 10.7 -15.1 12.7 -14.3Z" stroke="#6a6a6a" fill="none" stroke-width="1"></path></g><g transform="translate(359 67)"><path d="M5.4 -5.1C7.4 -4.8 9.6 -3.4 10.6 -1.3C11.6 0.7 11.4 3.6 9.6 4.7C7.9 5.8 4.8 5.2 2.7 4.8C0.7 4.3 -0.4 4.1 -1.6 3.9C-2.9 3.7 -4.4 3.5 -5.2 2.7C-6 1.9 -6.1 0.4 -5.9 -1C-5.6 -2.4 -4.9 -3.7 -3.9 -4.3C-2.8 -4.8 -1.4 -4.6 0.1 -4.8C1.7 -5 3.4 -5.5 5.4 -5.1Z" stroke="#6a6a6a" fill="none" stroke-width="1"></path></g><g transform="translate(198 2977)"><path d="M14.8 -16.8C20.6 -12.8 27.6 -9.5 30 -4.1C32.4 1.3 30.2 8.7 25.6 13C21 17.2 14 18.3 7.2 21.5C0.4 24.7 -6.2 30 -13.2 30.1C-20.1 30.2 -27.3 25.1 -30.6 18.2C-33.9 11.4 -33.3 2.8 -31.7 -5.5C-30.2 -13.9 -27.7 -22 -22.3 -26C-16.8 -30 -8.4 -29.9 -1.9 -27.6C4.5 -25.3 9.1 -20.7 14.8 -16.8Z" stroke="#6a6a6a" fill="none" stroke-width="1"></path></g><g transform="translate(8 3401)"><path d="M25.2 -27.8C34.9 -21.8 46.7 -16.1 50.2 -7.2C53.7 1.6 48.9 13.5 41.3 21.3C33.7 29 23.4 32.6 14.4 32.9C5.5 33.2 -2.2 30.2 -6.9 25.7C-11.6 21.1 -13.3 14.9 -18.6 9.1C-23.9 3.3 -32.9 -2 -33.7 -7.4C-34.5 -12.8 -27.2 -18.3 -20.2 -24.7C-13.3 -31.2 -6.6 -38.7 0.5 -39.4C7.7 -40 15.4 -33.8 25.2 -27.8Z" stroke="#6a6a6a" fill="none" stroke-width="1"></path></g><g transform="translate(395 3648)"><path d="M5 -5.4C6 -5 6.1 -3.1 6.4 -1.2C6.7 0.7 7.2 2.6 6.6 4C6 5.5 4.4 6.7 3 6.4C1.6 6.2 0.2 4.5 -1.3 3.9C-2.9 3.2 -4.8 3.5 -6.2 2.8C-7.7 2 -8.7 0.1 -8.6 -1.6C-8.4 -3.4 -7.1 -5.1 -5.4 -5.3C-3.8 -5.6 -1.9 -4.3 0 -4.4C2 -4.4 3.9 -5.7 5 -5.4Z" stroke="#6a6a6a" fill="none" stroke-width="1"></path></g><g transform="translate(90 4277)"><path d="M20.1 -22.6C24.7 -20 26.4 -12.5 27.5 -5C28.7 2.5 29.4 9.9 26.5 15.6C23.6 21.3 17.1 25.2 10.2 27.4C3.4 29.6 -3.9 30.1 -10.2 27.9C-16.5 25.7 -21.9 20.7 -26 14.6C-30.1 8.4 -32.9 1.1 -30.7 -4.3C-28.4 -9.7 -21.1 -13.1 -15.2 -15.4C-9.2 -17.8 -4.6 -19.2 1.5 -21.1C7.7 -22.9 15.4 -25.2 20.1 -22.6Z" stroke="#6a6a6a" fill="none" stroke-width="1"></path></g><g transform="translate(282 2219)"><path d="M16.5 -20.3C19.2 -17.3 17.9 -10.1 17.3 -4.4C16.7 1.3 16.8 5.5 15.3 9.5C13.8 13.4 10.7 17.1 5.2 22.9C-0.3 28.6 -8.2 36.3 -15.6 36.4C-22.9 36.4 -29.9 28.8 -31.6 20.7C-33.4 12.6 -30 3.9 -27.7 -4.1C-25.4 -12.2 -24.1 -19.7 -19.6 -22.4C-15.2 -25.1 -7.6 -23.2 -0.4 -22.7C6.8 -22.3 13.7 -23.4 16.5 -20.3Z" stroke="#6a6a6a" fill="none" stroke-width="1"></path></g><g transform="translate(1 2137)"><path d="M10.6 -14C13.1 -10.6 14 -6.6 13.2 -3.5C12.4 -0.3 9.9 2 8.2 4.5C6.4 6.9 5.4 9.6 3.3 11.5C1.1 13.4 -2.3 14.5 -5.7 13.9C-9.1 13.4 -12.5 11.3 -15 8.1C-17.6 4.9 -19.4 0.6 -17.9 -2.4C-16.4 -5.3 -11.8 -6.9 -8.3 -10.1C-4.7 -13.3 -2.4 -18.2 0.8 -19.2C4.1 -20.2 8.1 -17.4 10.6 -14Z" stroke="#6a6a6a" fill="none" stroke-width="1"></path></g><g transform="translate(17 1519)"><path d="M13.1 -15C15.6 -13.5 15.3 -8.1 15.2 -3.5C15.1 1.1 15.1 4.9 13.1 6.8C11.1 8.6 7.1 8.5 3.6 9.6C0.2 10.7 -2.7 13 -6.5 13.5C-10.3 14 -14.9 12.7 -16.7 9.6C-18.5 6.6 -17.4 1.9 -15.5 -1.6C-13.5 -5 -10.6 -7.1 -7.9 -8.6C-5.2 -10.1 -2.6 -10.9 1.4 -12.5C5.3 -14.1 10.6 -16.5 13.1 -15Z" stroke="#6a6a6a" fill="none" stroke-width="1"></path></g><g transform="translate(377 1939)"><path d="M3.7 -4.7C4.5 -3.8 4.5 -2.3 4.2 -1.2C3.9 0 3.3 0.8 3 2.1C2.7 3.5 2.7 5.4 2 6C1.2 6.5 -0.3 5.7 -1.6 4.9C-2.8 4.2 -3.9 3.5 -4.9 2.5C-5.8 1.5 -6.7 0.1 -6.1 -0.8C-5.6 -1.7 -3.8 -2 -2.6 -2.7C-1.3 -3.5 -0.7 -4.6 0.4 -5.1C1.5 -5.6 3 -5.5 3.7 -4.7Z" stroke="#6a6a6a" fill="none" stroke-width="1"></path></g><g transform="translate(113 2417)"><path d="M11 -13.5C13.1 -11.4 12.7 -6.8 13.9 -2.1C15.2 2.5 17.9 7.2 17.1 10.9C16.2 14.5 11.7 17.1 7.4 17.3C3.2 17.5 -0.8 15.4 -4.5 13.6C-8.3 11.7 -11.7 10.2 -13.1 7.6C-14.4 5.1 -13.7 1.4 -13.6 -2.9C-13.5 -7.2 -13.9 -12.2 -11.8 -14.2C-9.6 -16.2 -4.8 -15.4 -0.2 -15.2C4.5 -15 9 -15.5 11 -13.5Z" stroke="#6a6a6a" fill="none" stroke-width="1"></path></g><g transform="translate(388 209)"><path d="M19.7 -20.3C25.1 -19 28.7 -12.3 30 -5.2C31.3 1.8 30.3 9.4 27.4 17.1C24.4 24.8 19.6 32.6 14.1 31.6C8.5 30.6 2.3 20.7 -4.2 16.3C-10.7 11.9 -17.5 13 -23.6 10C-29.7 7 -35 -0.1 -34.8 -7C-34.7 -14 -29 -20.9 -22.2 -22C-15.5 -23 -7.8 -18.4 -0.3 -18C7.2 -17.7 14.3 -21.6 19.7 -20.3Z" stroke="#6a6a6a" fill="none" stroke-width="1"></path></g><g transform="translate(193 1994)"><path d="M20 -24.8C21.9 -22.3 16.7 -12.1 17 -3.9C17.3 4.3 23.3 10.6 23.1 15.7C22.9 20.8 16.7 24.8 10 26.9C3.4 29.1 -3.7 29.4 -9.3 26.8C-14.9 24.2 -18.9 18.7 -20.7 13.1C-22.5 7.6 -22 1.9 -19.4 -1.8C-16.8 -5.4 -12.1 -7.1 -8.5 -9.3C-4.9 -11.5 -2.4 -14.3 3.3 -18.2C9.1 -22.2 18.1 -27.3 20 -24.8Z" stroke="#6a6a6a" fill="none" stroke-width="1"></path></g></g></svg>