<?xml version="1.0" encoding="UTF-8" standalone="no"?>
<svg
   version="1.1"
   width="200"
   height="2400"
   preserveAspectRatio="none"
   viewBox="0 0 200 2400"
   id="svg72"
   sodipodi:docname="contour-lines-background.svg"
   inkscape:version="1.3 (0e150ed6c4, 2023-07-21)"
   xmlns:inkscape="http://www.inkscape.org/namespaces/inkscape"
   xmlns:sodipodi="http://sodipodi.sourceforge.net/DTD/sodipodi-0.dtd"
   xmlns="http://www.w3.org/2000/svg"
   xmlns:svg="http://www.w3.org/2000/svg">
  <sodipodi:namedview
     id="namedview72"
     pagecolor="#ffffff"
     bordercolor="#000000"
     borderopacity="0.25"
     inkscape:showpageshadow="2"
     inkscape:pageopacity="0.0"
     inkscape:pagecheckerboard="0"
     inkscape:deskcolor="#d1d1d1"
     showgrid="false"
     inkscape:zoom="2.4552213"
     inkscape:cx="84.310117"
     inkscape:cy="79.218927"
     inkscape:window-width="1366"
     inkscape:window-height="703"
     inkscape:window-x="0"
     inkscape:window-y="0"
     inkscape:window-maximized="1"
     inkscape:current-layer="g72" />
  <g
     mask="url(&quot;#SvgjsMask1007&quot;)"
     fill="none"
     id="g72">
    <path
       d="M50 45C48.09 45 46.67 48.02 46.67 50C46.67 51.18 48.3 51.32 50 51.32C52.46 51.32 55 51.33 55 50C55 48.17 52.25 45 50 45"
       stroke="rgba(45, 45, 45, 0.5)"
       stroke-width="2"
       id="path1"
       style="fill:none;fill-opacity:1;stroke-width:1.13385827;stroke-dasharray:none;stroke:#000000;stroke-opacity:1" />
    <path
       d="M 8.89,100 C 8.89,91.55 1.73,91.54 0,81.82 -2.72,66.54 0,65.91 0,50 0,25 -12.5,12.5 0,0 c 2.3902858,-2.3902858 197.60985,-2.3901549 200,0 12.5,12.5 0,25 0,50 v 50 c 0,24.65 1.56,25.91 0,49.3 -0.11,1.61 -3.33,0.3 -3.33,0.7 0,0.41 3.22,-0.73 3.33,0.91 1.56,23.36 0,24.54 0,49.09 v 50 50 50 50 50 c 0,12.75 3.21,13.57 0,25.49 -3.51,13.08 -12.04,11.2 -13.44,24.51 -2.52,23.95 1.5,25.24 5.61,50 2.61,15.71 5.38,15.29 7.83,30.95 1.46,9.34 0,9.52 0,19.05 v 50 50 50 50 50 c 0,20.45 11.25,31.97 0,40.91 -13.75,10.94 -25.37,-3.68 -50,-1.15 -19.69,2.02 -38.64,5.28 -38.64,10.24 0,4.94 19.06,6.26 38.64,9.55 24.74,4.16 35.28,-6.57 50,5.34 10.28,8.32 0,17.55 0,35.11 v 50 50 50 50 c 0,18.75 5.36,21.43 0,37.5 -2.98,8.93 -16.67,6.29 -16.67,12.5 0,6.17 13.72,3.41 16.67,12.26 5.38,16.15 0,18.87 0,37.74 0,15.39 9.48,26.03 0,30.77 -15.52,7.76 -28.24,3.44 -50,-5.77 -14.61,-6.18 -9.72,-14.59 -22.73,-25 -11.99,-9.59 -12.6,-13.92 -27.27,-15 -23.97,-1.77 -26.03,2.78 -50,9.29 -3.66,0.99 -5.26,2.52 -5.26,5.71 0,4.55 1.75,5.5 5.26,9.76 17.06,20.74 26.23,16.84 35.87,40.24 8.95,21.72 -3.87,26.92 1.31,50 1.89,8.42 6.28,12.99 12.82,12.99 6.81,0 7.29,-6.15 13.89,-12.99 18.4,-19.06 16.75,-38.81 36.11,-38.81 22.33,0 23.65,19.39 47.27,38.81 1.38,1.14 2.63,0.57 2.73,2.31 1.27,23.26 0,23.84 0,47.69 v 50 50 50 50 50 c 0,4.16 1.62,4.56 0,8.33 -9.15,21.23 -8.26,22.62 -21.55,41.67 -11.71,16.79 -10.92,25.7 -28.45,30 -21.69,5.32 -31.05,-16.83 -50,-10.77 -12.3,3.94 -12.5,15.08 -12.5,30.77 0,20.75 -2.11,32.59 12.5,42.11 16.64,10.85 29.32,8.68 50,-1.37 22.66,-11.01 17.85,-20.85 36.67,-40.74 6.18,-6.54 9.35,-12.12 13.33,-12.12 2.68,0 0,6.06 0,12.12 v 50 50 50 c 0,17.74 7.81,22.66 0,35.47 -7.44,12.19 -30.49,7.12 -30.49,14.53 0,7.48 22.94,2.86 30.49,15.24 7.7,12.62 0,17.38 0,34.76 v 50 50 c 0,22.5 11.68,37.15 0,45 -13.32,8.95 -26.14,-12.95 -50,-11.41 -14.95,0.96 -27.63,9 -27.63,16.41 0,6.97 13,10.31 27.63,12.35 24.18,3.37 35.98,-12.1 50,-1.54 10.98,8.27 0,19.59 0,39.19 0,23.39 11.94,38.18 0,46.77 -13.06,9.39 -26.6,-11.94 -50,-10.81 -10.05,0.49 -9.8,5.73 -16.89,14.04 -17.91,20.99 -16.57,22.26 -33.11,44.55 -2.01,2.71 -2.46,2.45 -4,5.45 -12.65,24.72 -25.67,30 -24.38,50 0.71,11.11 13.94,12.21 28.38,12.21 17.86,0 22.93,-0.79 36.21,-12.21 11.72,-10.07 5.7,-30.77 13.79,-30.77 8.8,0 6.42,20.43 20,30.77 11.42,8.7 23.7,-3.17 30,7.32 8.7,14.51 11.51,32.85 0,42.68 -13.49,11.51 -25,0 -50,0 H 100 50 c -25,0 -34.65,9.65 -50,0 -9.65,-6.07 -7,-19.59 0,-31.45 7.75,-13.14 29.49,-8.6 29.49,-18.55 0,-10.6 -21.01,-8.18 -29.49,-22.55 -6.27,-10.63 0,-13.72 0,-27.45 v -50 -50 -50 -50 -50 -50 -50 -50 c 0,-17.68 -10.36,-28.23 0,-35.37 14.64,-10.09 27.76,6.17 50,0.91 8.69,-2.06 11.86,-7.12 11.86,-15.54 0,-12.13 -0.81,-22.5 -11.86,-25.56 -19.88,-5.51 -34.83,15.83 -50,8.42 -9.83,-4.81 0,-16.43 0,-32.86 v -50 -50 -50 -50 -50 -50 -50 -50 -50 c 0,-17.91 -5.25,-20.38 0,-35.83 3.25,-9.55 17,-7.78 17,-14.17 0,-5.69 -14.19,-1.74 -17,-10 -5.69,-16.74 0,-20 0,-40 0,-18.09 -4.74,-20.14 0,-36.17 2.65,-8.97 14.77,-6.32 14.77,-13.83 0,-8.97 -11.53,-8.15 -14.77,-19.12 -4.14,-14.03 0,-15.44 0,-30.88 v -50 -50 -50 -50 -50 -50 c 0,-10.87 -5.48,-21.74 0,-21.74 9.22,0 13.82,12.48 29.41,21.74 9.41,5.59 11.23,7.95 20.59,7.95 4.58,0 3.07,-4.62 7.29,-7.95 20.78,-16.41 20.02,-18.05 42.71,-31.54 19.36,-11.51 41.38,-6.68 41.38,-18.46 0,-13.67 -19.81,-32.08 -41.38,-32.43 -24.12,-0.39 -23.2,25.2 -50,30.94 -23.2,4.97 -35.84,4.21 -50,-9.53 C -10.84,778.46 0,769.49 0,750 v -50 c 0,-16.66 -9.87,-24.67 0,-33.33 15.13,-13.27 25.85,-3.51 50,-10.52 4.55,-1.32 7.41,-2.94 7.41,-6.15 0,-3.43 -4.16,-3.16 -7.41,-7.14 C 32.88,621.84 33.46,621.33 16.67,600 8.46,589.56 3.96,591.2 0,579.31 -4.37,566.2 0,564.65 0,550 v -50 -50 -50 -50 -50 -50 -50 -50 c 0,-20.12 -3.35,-21.42 0,-40.24 1.1,-6.18 8.89,-4.24 8.89,-9.76"
       stroke="rgba(45, 45, 45, 0.5)"
       stroke-width="2"
       id="path2"
       style="fill:none;fill-opacity:1;stroke:#000000;stroke-width:1.13386;stroke-dasharray:none;stroke-opacity:1"
       sodipodi:nodetypes="ccssssscscsccccsccccsccccsccsccscccscscssccccsccsscsccsccccsccccscccssccscscscsccscssccccccscscccscsccscscccccccsscsccsccccccccscscscscscccccsscsccscccssccscccscccccccscc" />
    <path
       d="M150 83.33C147.98 83.33 145.89 91.69 145.89 100C145.89 107.53 147.98 115 150 115C152.01 115 153.95 107.52 153.95 100C153.95 91.69 152.01 83.33 150 83.33"
       stroke="rgba(45, 45, 45, 0.5)"
       stroke-width="2"
       id="path3"
       style="fill:none;fill-opacity:1;stroke-width:1.13385827;stroke-dasharray:none;stroke:#000000;stroke-opacity:1" />
    <path
       d="M150 179.17C140.26 179.17 125 192.44 125 200C125 205.98 138.18 206.25 150 206.25C154.59 206.25 157.81 204.2 157.81 200C157.81 190.66 156.66 179.17 150 179.17"
       stroke="rgba(45, 45, 45, 0.5)"
       stroke-width="2"
       id="path4"
       style="fill:none;fill-opacity:1;stroke-width:1.13385827;stroke-dasharray:none;stroke:#000000;stroke-opacity:1" />
    <path
       d="M100 292.55C90.27 293.59 81.58 296 81.58 300C81.58 304.1 91.58 303.07 100 308.75C125.79 326.14 133.61 348.65 150 346.15C162.27 344.28 157.32 321.89 157.32 300C157.32 295.15 154.92 293.32 150 292.68C126.26 289.59 124.48 289.93 100 292.55"
       stroke="rgba(45, 45, 45, 0.5)"
       stroke-width="2"
       id="path5"
       style="fill:none;fill-opacity:1;stroke-width:1.13385827;stroke-dasharray:none;stroke:#000000;stroke-opacity:1" />
    <path
       d="M50 383.33C39.52 383.33 25 388.69 25 400C25 419.09 40.93 444.12 50 444.12C58.06 444.12 59.26 421.36 59.26 400C59.26 390.96 56.65 383.33 50 383.33"
       stroke="rgba(45, 45, 45, 0.5)"
       stroke-width="2"
       id="path6"
       style="fill:none;fill-opacity:1;stroke-width:1.13385827;stroke-dasharray:none;stroke:#000000;stroke-opacity:1" />
    <path
       d="M50 545.51C45.48 545.51 41.46 547.42 41.46 550C41.46 552.85 45.29 556.36 50 556.36C57.89 556.36 66.67 552.76 66.67 550C66.67 547.33 58.09 545.51 50 545.51"
       stroke="rgba(45, 45, 45, 0.5)"
       stroke-width="2"
       id="path7"
       style="fill:none;fill-opacity:1;stroke-width:1.13385827;stroke-dasharray:none;stroke:#000000;stroke-opacity:1" />
    <path
       d="M150 598.61C148.98 598.61 148.36 599.17 148.36 600C148.36 601.22 148.64 602.7 150 602.7C154.46 602.7 160 601.04 160 600C160 598.99 154.8 598.61 150 598.61"
       stroke="rgba(45, 45, 45, 0.5)"
       stroke-width="2"
       id="path8"
       style="fill:none;fill-opacity:1;stroke-width:1.13385827;stroke-dasharray:none;stroke:#000000;stroke-opacity:1" />
    <path
       d="M150 687.23C143.88 687.23 138.24 694.33 138.24 700C138.24 704.61 143.99 707.79 150 707.79C156.69 707.79 163.64 704.7 163.64 700C163.64 694.42 156.58 687.23 150 687.23"
       stroke="rgba(45, 45, 45, 0.5)"
       stroke-width="2"
       id="path9"
       style="fill:none;fill-opacity:1;stroke-width:1.13385827;stroke-dasharray:none;stroke:#000000;stroke-opacity:1" />
    <path
       d="M100 991.67C95.68 991.67 92.26 995 92.26 1000C92.26 1010.77 95.22 1023.21 100 1023.21C105.11 1023.21 112.04 1010.11 112.04 1000C112.04 994.34 105.57 991.67 100 991.67"
       stroke="rgba(45, 45, 45, 0.5)"
       stroke-width="2"
       id="path10"
       style="fill:none;fill-opacity:1;stroke-width:1.13385827;stroke-dasharray:none;stroke:#000000;stroke-opacity:1" />
    <path
       d="M50 1078.79C44.65 1078.79 42.77 1088.77 40.91 1100C36.86 1124.37 34.66 1127.31 38.18 1150C39.21 1156.64 44.39 1158.67 50 1158.67C54.75 1158.67 57.59 1155.82 58.9 1150C64.19 1126.49 66.18 1123.77 63.21 1100C61.73 1088.16 55.8 1078.79 50 1078.79"
       stroke="rgba(45, 45, 45, 0.5)"
       stroke-width="2"
       id="path11"
       style="fill:none;fill-opacity:1;stroke-width:1.13385827;stroke-dasharray:none;stroke:#000000;stroke-opacity:1" />
    <path
       d="M150 1388.81C144.88 1388.81 139.58 1393.34 139.58 1400C139.58 1413.36 144.94 1428.85 150 1428.85C155.02 1428.85 159.74 1413.46 159.74 1400C159.74 1393.44 154.96 1388.81 150 1388.81"
       stroke="rgba(45, 45, 45, 0.5)"
       stroke-width="2"
       id="path12"
       style="fill:none;fill-opacity:1;stroke-width:1.13385827;stroke-dasharray:none;stroke:#000000;stroke-opacity:1" />
    <path
       d="M100 1441.91C95.03 1441.91 92.03 1446.08 92.03 1450C92.03 1453.69 95.19 1457.14 100 1457.14C111.68 1457.14 125 1453.79 125 1450C125 1446.17 111.51 1441.91 100 1441.91"
       stroke="rgba(45, 45, 45, 0.5)"
       stroke-width="2"
       id="path13"
       style="fill:none;fill-opacity:1;stroke-width:1.13385827;stroke-dasharray:none;stroke:#000000;stroke-opacity:1" />
    <path
       d="M50 1528.57C42.1 1528.57 36.21 1540.08 36.21 1550C36.21 1557.46 42.48 1563.33 50 1563.33C59.54 1563.33 70.34 1557.85 70.34 1550C70.34 1540.47 59.16 1528.57 50 1528.57"
       stroke="rgba(45, 45, 45, 0.5)"
       stroke-width="2"
       id="path14"
       style="fill:none;fill-opacity:1;stroke-width:1.13385827;stroke-dasharray:none;stroke:#000000;stroke-opacity:1" />
    <path
       d="M100 1635.44C88.12 1635.44 77.45 1640.3 77.45 1650C77.45 1665 87.01 1684.85 100 1684.85C115.2 1684.85 133.82 1664.05 133.82 1650C133.82 1639.35 116.3 1635.44 100 1635.44"
       stroke="rgba(45, 45, 45, 0.5)"
       stroke-width="2"
       id="path15"
       style="fill:none;fill-opacity:1;stroke-width:1.13385827;stroke-dasharray:none;stroke:#000000;stroke-opacity:1" />
    <path
       d="M150 1885.63C143.77 1885.63 138.02 1891.88 138.02 1900C138.02 1913.81 143.65 1929.49 150 1929.49C156.49 1929.49 163.69 1913.62 163.69 1900C163.69 1891.69 156.61 1885.63 150 1885.63"
       stroke="rgba(45, 45, 45, 0.5)"
       stroke-width="2"
       id="path16"
       style="fill:none;fill-opacity:1;stroke-width:1.13385827;stroke-dasharray:none;stroke:#000000;stroke-opacity:1" />
    <path
       d="M50 2092.73C43.17 2092.73 36.02 2092.75 34.62 2100C30.49 2121.39 33.17 2126.56 38.95 2150C40.86 2157.73 43.21 2162.34 50 2162.34C61.93 2162.34 75.39 2160.91 76.39 2150C78.25 2129.74 66.98 2124.46 55.71 2100C53.78 2095.82 53.71 2092.73 50 2092.73"
       stroke="rgba(45, 45, 45, 0.5)"
       stroke-width="2"
       id="path17"
       style="fill:none;fill-opacity:1;stroke-width:1.13385827;stroke-dasharray:none;stroke:#000000;stroke-opacity:1" />
    <path
       d="M 39.06,0 C 40.58,15.19 22.75,25.72 5,50 3.22,52.43 1.6,53.41 0,53.41 -0.9,53.41 0,51.7 0,50 -30.811462,36.215432 21.820214,-41.982058 39.06,0"
       stroke="rgba(45, 45, 45, 0.5)"
       stroke-width="2"
       id="path18"
       style="fill:none;fill-opacity:1;stroke:#000000;stroke-width:1.13386;stroke-dasharray:none;stroke-opacity:1"
       sodipodi:nodetypes="ccssc" />
    <path
       d="M 100,37.93 C -20.377874,-14.030911 197.45283,-2.5471676 200,0 c 12.5,12.5 0,25 0,50 v 50 c 0,15.84 6.25,31.69 0,31.69 -8.55,0 -28.83,-13.93 -29.61,-31.69 C 169.38,76.91 201.94,66.76 196.43,50 191.74,35.74 173.61,40.91 150,37.96 125.39,34.88 121.21,47.09 100,37.93"
       stroke="rgba(45, 45, 45, 0.5)"
       stroke-width="2"
       id="path19"
       style="fill:none;fill-opacity:1;stroke:#000000;stroke-width:1.13386;stroke-dasharray:none;stroke-opacity:1"
       sodipodi:nodetypes="csssscccc" />
    <path
       d="M22.78 100C36.66 84.11 32.54 77.45 50 67.76C71.15 56.02 80.4 49.12 100 57.14C119.79 65.24 118.58 76.74 128.77 100C138.92 123.17 147.58 128.87 140.68 150C133.2 172.92 121.57 170.74 100 188.1C90.51 195.74 78.57 192.13 78.57 200C78.57 210.58 85.84 220.66 100 225C121.55 231.6 127.24 229.24 150 221.88C165.91 216.74 164.79 212.1 177.34 200C189.79 187.98 193.56 173.64 200 173.64C204.89 173.64 200 186.82 200 200C200 225 200 225 200 250C200 275 200 275 200 300C200 321.23 206.26 342.45 200 342.45C192.54 342.45 187.89 319.93 172.56 300C162.89 287.42 163.91 283.97 150 277.44C127.63 266.95 124.19 263.36 100 265.96C74.19 268.73 75.87 285.1 50 288.18C25.87 291.06 16.17 290.23 0 277.88C-8.83 271.14 0 263.94 0 250C0 225 0 225 0 200C0 175 0 175 0 150C0 137.5 -4.84 135.63 0 125C6.55 110.63 11.66 112.73 22.78 100"
       stroke="rgba(45, 45, 45, 0.5)"
       stroke-width="2"
       id="path20"
       style="fill:none;fill-opacity:1;stroke-width:1.13385827;stroke-dasharray:none;stroke:#000000;stroke-opacity:1" />
    <path
       d="M27.27 350C27.27 344.82 37.39 337.84 50 336.11C73.75 332.84 76.31 334.74 100 340C107.56 341.68 105.89 345.5 112.5 350C130.89 362.5 131.59 361.5 150 374C168.4 386.5 174.02 382.73 186.11 400C199.02 418.45 193.66 422.63 200 445.45C200.61 447.63 200 447.73 200 450C200 450.49 200.23 450.55 200 450.98C186.79 475.55 179.15 473.9 173.12 500C167.71 523.41 183.44 527.74 177.11 550C171.88 568.36 164.47 566.55 150 581.25C139.85 591.55 127.87 588.82 127.87 600C127.87 616.44 136.42 620.68 150 636.49C157.9 645.68 170.83 643.78 170.83 650C170.83 655.86 158.68 653.04 150 660.64C130.13 678.04 113.73 682.52 113.73 700C113.73 714.21 131.47 724.03 150 724.03C170.63 724.03 173.95 714.73 192.05 700C198.95 694.38 197.91 683.33 200 683.33C201.89 683.33 200 691.66 200 700C200 725 200 725 200 750C200 775 200 775 200 800C200 825 200 825 200 850C200 862.34 208.26 870.6 200 874.68C183.26 882.95 174.98 875.31 150 874.7C124.98 874.08 121.44 880.16 100 872.22C88.1 867.81 83.33 859.89 83.33 850C83.33 842.62 90.8 842.33 100 837.69C124.13 825.52 126.84 829.69 150 816.39C159.65 810.85 165.63 808.23 165.63 800C165.63 791.7 158.38 791.08 150 783.33C131.34 766.08 128.13 768.72 111.54 750C103.13 740.51 105.77 726.92 100 726.92C94.23 726.92 97.12 740.83 88.46 750C72.12 767.3 71.51 775.52 50 779.85C27.28 784.42 18.57 778.89 0 767.8C-6.43 763.96 0 758.9 0 750C0 734.56 -4.07 733.2 0 719.12C3.15 708.2 5.53 707.8 14.44 700C30.53 685.93 32.77 688.41 50 675.38C65.83 663.41 80.56 663.26 80.56 650C80.56 635.84 64.42 636.04 50 620.54C41.16 611.04 34.03 610.3 34.03 600C34.03 589.58 39.03 585.37 50 579.09C72.01 566.48 76.94 573.43 100 562.22C106.85 558.89 108.21 557.41 109.82 550C114.99 526.3 114.01 524.96 113.56 500C113.1 474.96 113.53 473.7 108 450C106.75 444.62 103.15 446.58 100 441.84C86.5 421.58 86.95 421.15 74.69 400C61.95 378.01 66.24 372.68 50 355.56C42.53 347.68 27.27 354.55 27.27 350"
       stroke="rgba(45, 45, 45, 0.5)"
       stroke-width="2"
       id="path21"
       style="fill:none;fill-opacity:1;stroke-width:1.13385827;stroke-dasharray:none;stroke:#000000;stroke-opacity:1" />
    <path
       d="M0 418.52C5.81 418.52 7.92 437.16 21.25 450C32.92 461.23 36.83 456.67 50 466.67C69.76 481.67 87.1 483.89 87.1 500C87.1 515.3 69.72 516.54 50 529.49C31.66 541.54 30.14 539.17 10.98 550C5.14 553.3 3.48 557.76 0 557.76C-2.01 557.76 0 553.88 0 550C0 538.75 -2.1 538.39 0 527.5C2.72 513.39 9.65 513.46 9.65 500C9.65 489.89 2.02 490.83 0 480.36C-2.8 465.83 0 465.18 0 450C0 434.26 -4.82 418.52 0 418.52"
       stroke="rgba(45, 45, 45, 0.5)"
       stroke-width="2"
       id="path22"
       style="fill:none;fill-opacity:1;stroke-width:1.13385827;stroke-dasharray:none;stroke:#000000;stroke-opacity:1" />
    <path
       d="M0 885.71C19.44 880.41 26.51 881.48 50 886.36C60.89 888.62 58.86 894 68.75 900C83.86 909.16 83.25 911.8 100 916.67C123.87 923.6 125.63 917.55 150 923.6C175.63 929.96 178.45 930.11 200 941.49C203.45 943.31 200 945.74 200 950C200 961.11 203.81 962.3 200 972.22C194.2 987.3 184.65 984.32 180.77 1000C175.03 1023.21 173.97 1029.63 180.77 1050C183.58 1058.42 196.85 1049.39 200 1057.58C206.46 1074.39 200 1078.79 200 1100C200 1125 200 1125 200 1150C200 1156.73 203.76 1163.46 200 1163.46C192.83 1163.46 188.34 1157.72 178.13 1150C163.34 1138.83 162.55 1125.68 150 1125.68C139.99 1125.68 133.02 1136.71 133.02 1150C133.02 1172.55 141.37 1173.74 150 1197.37C150.5 1198.74 151.28 1198.63 151.28 1200C151.28 1202.22 152.18 1203.95 150 1204.55C126.54 1211.03 124.86 1208.73 100 1214.17C74.86 1219.67 71.44 1230.71 50 1226.43C35.93 1223.62 28.98 1213.04 28.98 1200C28.98 1187.49 38.91 1187.12 50 1175.33C62.43 1162.12 68.39 1165.64 76.03 1150C86.79 1127.98 79.42 1124.34 86.79 1100C91.4 1084.76 90.17 1082.82 100 1070.83C110.66 1057.82 120.62 1064.42 127.78 1050C138.21 1029.01 142.71 1020.13 135.19 1000C128.82 982.95 116.27 975.64 100 975.64C87.36 975.64 87.13 986.63 77.38 1000C62.13 1020.92 69.18 1030.58 50 1044.23C34.06 1055.58 12.83 1037.47 7.14 1050C0.17 1065.35 22.56 1074.48 24.68 1100C26.71 1124.48 24.32 1127.53 15.45 1150C11.98 1158.78 4.74 1162.5 0 1162.5C-2.98 1162.5 0 1156.25 0 1150C0 1125 0 1125 0 1100C0 1075 0 1075 0 1050C0 1025 0 1025 0 1000C0 987.5 -6.93 983.66 0 975C13.07 958.66 40 963.86 40 950C40 934.7 15.15 935.61 0 916.67C-4.85 910.61 0 908.34 0 900C0 892.86 -5.56 887.23 0 885.71"
       stroke="rgba(45, 45, 45, 0.5)"
       stroke-width="2"
       id="path23"
       style="fill:none;fill-opacity:1;stroke-width:1.13385827;stroke-dasharray:none;stroke:#000000;stroke-opacity:1" />
    <path
       d="M0 1227.13C8.68 1227.13 28.29 1238.21 28.29 1250C28.29 1262.29 8.49 1275.29 0 1275.29C-5.66 1275.29 0 1262.64 0 1250C0 1238.57 -5.46 1227.13 0 1227.13"
       stroke="rgba(45, 45, 45, 0.5)"
       stroke-width="2"
       id="path24"
       style="fill:none;fill-opacity:1;stroke-width:1.13385827;stroke-dasharray:none;stroke:#000000;stroke-opacity:1" />
    <path
       d="M170 1250C170 1243.48 189.49 1235.85 200 1235.85C204.49 1235.85 200 1242.93 200 1250C200 1255.77 203.96 1261.54 200 1261.54C188.96 1261.54 170 1256.32 170 1250"
       stroke="rgba(45, 45, 45, 0.5)"
       stroke-width="2"
       id="path25"
       style="fill:none;fill-opacity:1;stroke-width:1.13385827;stroke-dasharray:none;stroke:#000000;stroke-opacity:1" />
    <path
       d="M42 1300C46.69 1295.8 45.9 1290.24 50 1290.24C54.25 1290.24 56.56 1293.95 58.7 1300C67.13 1323.83 59.66 1327.96 71.15 1350C80.31 1367.57 85.33 1364.86 100 1379.22C110.87 1389.86 122.22 1389.26 122.22 1400C122.22 1411.42 111.24 1411.89 100 1423.53C87.09 1436.89 73.91 1437.17 73.91 1450C73.91 1462.09 84.42 1467.15 100 1473.38C122.46 1482.36 127.53 1471.83 150 1480.43C162.32 1485.14 158.2 1492.55 169.57 1500C183.2 1508.94 192.79 1501.36 200 1513.21C208 1526.36 200 1531.61 200 1550C200 1575 200 1575 200 1600C200 1606.48 204.69 1609.35 200 1612.96C179.69 1628.61 175.62 1636.81 150 1638.52C125.62 1640.14 123.7 1616.82 100 1619.62C75.17 1622.56 55.99 1630.71 52.94 1650C49.64 1670.9 83.3 1673.46 87.29 1700C90.82 1723.46 77.83 1725.08 67.97 1750C59.19 1772.19 66.6 1783.24 50 1794.23C32.61 1805.74 13.16 1806.64 0 1795C-11.84 1784.53 0 1772.5 0 1750C0 1725 0 1725 0 1700C0 1675 0 1675 0 1650C0 1628.41 -2.62 1627.37 0 1606.82C0.57 1602.37 6.38 1603.41 6.38 1600C6.38 1596.59 0.57 1597.63 0 1593.18C-2.62 1572.63 0 1571.59 0 1550C0 1525 0 1525 0 1500C0 1475 0 1475 0 1450C0 1425 0 1425 0 1400C0 1375 0 1375 0 1350C0 1342.5 -4.52 1340.38 0 1335C16.48 1315.38 21.69 1318.18 42 1300"
       stroke="rgba(45, 45, 45, 0.5)"
       stroke-width="2"
       id="path26"
       style="fill:none;fill-opacity:1;stroke-width:1.13385827;stroke-dasharray:none;stroke:#000000;stroke-opacity:1" />
    <path
       d="M131.25 1350C131.25 1339.93 139.95 1329.85 150 1329.85C161.6 1329.85 174.55 1339.93 174.55 1350C174.55 1360.07 161.6 1370.15 150 1370.15C139.95 1370.15 131.25 1360.07 131.25 1350"
       stroke="rgba(45, 45, 45, 0.5)"
       stroke-width="2"
       id="path27"
       style="fill:none;fill-opacity:1;stroke-width:1.13385827;stroke-dasharray:none;stroke:#000000;stroke-opacity:1" />
    <path
       d="M175.97 1400C175.97 1384.79 193.19 1371.54 200 1371.54C205.2 1371.54 200 1385.77 200 1400C200 1420.11 205.55 1440.22 200 1440.22C193.53 1440.22 175.97 1419.13 175.97 1400"
       stroke="rgba(45, 45, 45, 0.5)"
       stroke-width="2"
       id="path28"
       style="fill:none;fill-opacity:1;stroke-width:1.13385827;stroke-dasharray:none;stroke:#000000;stroke-opacity:1" />
    <path
       d="M50 1506.25C33.86 1506.25 21.84 1529.75 21.84 1550C21.84 1565.24 34.64 1577.22 50 1577.22C69.48 1577.22 91.53 1566.02 91.53 1550C91.53 1530.54 68.71 1506.25 50 1506.25"
       stroke="rgba(45, 45, 45, 0.5)"
       stroke-width="2"
       id="path29"
       style="fill:none;fill-opacity:1;stroke-width:1.13385827;stroke-dasharray:none;stroke:#000000;stroke-opacity:1" />
    <path
       d="M132.61 1700C132.61 1692.73 143.15 1681.82 150 1681.82C155.29 1681.82 156.9 1691.6 156.9 1700C156.9 1704.33 154.22 1707.27 150 1707.27C142.07 1707.27 132.61 1705.45 132.61 1700"
       stroke="rgba(45, 45, 45, 0.5)"
       stroke-width="2"
       id="path30"
       style="fill:none;fill-opacity:1;stroke-width:1.13385827;stroke-dasharray:none;stroke:#000000;stroke-opacity:1" />
    <path
       d="M195.45 1800C198.54 1798.49 198.7 1794.74 200 1794.74C200.98 1794.74 200 1797.37 200 1800C200 1825 200 1825 200 1850C200 1875 200 1875 200 1900C200 1910.47 204.41 1920.93 200 1920.93C193.69 1920.93 189.06 1910.69 178.57 1900C164.06 1885.22 163.79 1870 150 1870C137 1870 135.28 1883.55 125 1900C110.28 1923.55 112.5 1925 100 1950C100 1950 100 1950 100 1950C96.03 1975 92.05 1975.54 92.05 2000C92.05 2009.29 95.43 2009.06 100 2017.5C108.97 2034.06 107.14 2035.76 119.12 2050C132.14 2065.47 132.21 2074.26 150 2076.92C172.65 2080.31 185.52 2055.42 200 2062.1C210.52 2066.96 200 2081.05 200 2100C200 2114.69 208.99 2126.85 200 2129.38C183.99 2133.88 173.96 2111.25 150 2114.06C123.96 2117.11 120.55 2144.89 100 2141.11C82.33 2137.86 87.61 2119.97 73.57 2100C62.61 2084.41 65.68 2073.93 50 2070C28.9 2064.72 15.48 2087.77 0 2081.58C-9.52 2077.77 0 2065.79 0 2050C0 2036.36 -2.77 2035.75 0 2022.73C2.55 2010.75 10.64 2011.36 10.64 2000C10.64 1988.64 2.55 1989.25 0 1977.27C-2.77 1964.25 0 1963.64 0 1950C0 1925 0 1925 0 1900C0 1897.56 -2.16 1895.88 0 1895.12C22.84 1887.09 29.13 1895.03 50 1882.43C66.5 1872.47 62.54 1866.34 74.74 1850C87.54 1832.87 82.68 1822.57 100 1815.49C120.31 1807.19 125.95 1823.13 150 1819.23C173.67 1815.39 173.54 1810.73 195.45 1800"
       stroke="rgba(45, 45, 45, 0.5)"
       stroke-width="2"
       id="path31"
       style="fill:none;fill-opacity:1;stroke-width:1.13385827;stroke-dasharray:none;stroke:#000000;stroke-opacity:1" />
    <path
       d="M163.64 2000C163.64 1987.87 187.66 1980.49 200 1980.49C205.84 1980.49 200 1990.24 200 2000C200 2017.02 207.38 2034.04 200 2034.04C189.2 2034.04 163.64 2014.64 163.64 2000"
       stroke="rgba(45, 45, 45, 0.5)"
       stroke-width="2"
       id="path32"
       style="fill:none;fill-opacity:1;stroke-width:1.13385827;stroke-dasharray:none;stroke:#000000;stroke-opacity:1" />
    <path
       d="M0 2107.14C6.53 2107.14 10.35 2129.91 24.42 2150C35.35 2165.62 34.75 2167.52 50 2178.57C69.25 2192.52 72.99 2187.72 93.42 2200C97.99 2202.75 96.86 2208.62 100 2208.62C102.99 2208.62 101.39 2202.7 105.68 2200C126.39 2186.92 127.13 2178.37 150 2177.06C174.29 2175.67 177.32 2184.18 200 2194.59C202.32 2195.65 200 2197.3 200 2200C200 2203.23 202.74 2205.25 200 2206.45C177.74 2216.2 172.77 2210.07 150 2221.91C130.88 2231.85 131.66 2234.58 116.22 2250C106.66 2259.54 108.07 2260.88 100 2271.82C89.63 2285.88 89.52 2285.8 79.33 2300C64.52 2320.65 67.69 2340.85 50 2341.51C28.02 2342.32 23.89 2322.77 0 2302.94C-1.11 2302.02 0 2301.47 0 2300C0 2275 0 2275 0 2250C0 2225 0 2225 0 2200C0 2175 0 2175 0 2150C0 2128.57 -5.68 2107.14 0 2107.14"
       stroke="rgba(45, 45, 45, 0.5)"
       stroke-width="2"
       id="path33"
       style="fill:none;fill-opacity:1;stroke-width:1.13385827;stroke-dasharray:none;stroke:#000000;stroke-opacity:1" />
    <path
       d="M0 2388.71C8.48 2388.71 24.14 2397.04 24.14 2400C24.14 2402.68 8.22 2403.85 0 2400C-3.85 2398.2 -3.59 2388.71 0 2388.71"
       stroke="rgba(45, 45, 45, 0.5)"
       stroke-width="2"
       id="path34"
       style="fill:none;fill-opacity:1;stroke-width:1.13385827;stroke-dasharray:none;stroke:#000000;stroke-opacity:1" />
    <path
       d="M63.64 2400C63.64 2393.69 80.65 2377.92 100 2376.74C123.83 2375.29 125.36 2395.77 150 2394.74C175.36 2393.68 183.35 2370.81 200 2372.56C208.35 2373.44 208.86 2395.14 200 2400C183.86 2408.86 175 2400 150 2400C125 2400 125 2400 100 2400C81.82 2400 63.64 2405.32 63.64 2400"
       stroke="rgba(45, 45, 45, 0.5)"
       stroke-width="2"
       id="path35"
       style="fill:none;fill-opacity:1;stroke-width:1.13385827;stroke-dasharray:none;stroke:#000000;stroke-opacity:1" />
    <path
       d="M 150,14.81 C 128.42,9.48 107.89,3.81 107.89,0 c 26.71914,0.3525346 66.4543,-9.9323671 92.11,0 7.81,3.55 7.75,20.44 0,22.73 -17.25,5.11 -25.53,-1.88 -50,-7.92"
       stroke="rgba(45, 45, 45, 0.5)"
       stroke-width="2"
       id="path36"
       style="fill:none;fill-opacity:1;stroke:#000000;stroke-width:1.13386;stroke-dasharray:none;stroke-opacity:1"
       sodipodi:nodetypes="csccc" />
    <path
       d="M36.67 100C43.55 92.29 40.74 86.75 50 84.21C72.41 78.07 78.26 77.08 100 82.65C109.08 84.98 108.79 90.16 111.64 100C118.54 123.84 123.3 127.66 119.49 150C117.48 161.79 111.42 161.68 100 168.25C76.68 181.68 74.77 178.64 50 190C40.15 194.52 30.77 194.74 30.77 200C30.77 205.42 42.15 203.62 50 211.36C67.51 228.62 81.48 234.12 81.48 250C81.48 261.17 66.54 264.67 50 265.45C25.8 266.59 23.26 261.04 0 253.85C-1.74 253.31 0 251.93 0 250C0 225 0 225 0 200C0 175 0 175 0 150C0 145.12 -2.79 144.04 0 140.24C15.55 119.04 18.55 120.31 36.67 100"
       stroke="rgba(45, 45, 45, 0.5)"
       stroke-width="2"
       id="path37"
       style="fill:none;fill-opacity:1;stroke-width:1.13385827;stroke-dasharray:none;stroke:#000000;stroke-opacity:1" />
    <path
       d="M186.84 100C186.84 89.38 196.47 77.27 200 77.27C203.05 77.27 200 88.63 200 100C200 107.04 202.78 114.08 200 114.08C196.2 114.08 186.84 107.79 186.84 100"
       stroke="rgba(45, 45, 45, 0.5)"
       stroke-width="2"
       id="path38"
       style="fill:none;fill-opacity:1;stroke-width:1.13385827;stroke-dasharray:none;stroke:#000000;stroke-opacity:1" />
    <path
       d="M196.88 200C196.88 197.91 199.11 196.36 200 196.36C200.67 196.36 200 198.18 200 200C200 204 200.75 208 200 208C199.19 208 196.88 203.73 196.88 200"
       stroke="rgba(45, 45, 45, 0.5)"
       stroke-width="2"
       id="path39"
       style="fill:none;fill-opacity:1;stroke-width:1.13385827;stroke-dasharray:none;stroke:#000000;stroke-opacity:1" />
    <path
       d="M116.67 250C116.67 243.82 133.69 237.5 150 237.5C162.55 237.5 174.39 243.81 174.39 250C174.39 256.16 162.54 262.2 150 262.2C133.68 262.2 116.67 256.17 116.67 250"
       stroke="rgba(45, 45, 45, 0.5)"
       stroke-width="2"
       id="path40"
       style="fill:none;fill-opacity:1;stroke-width:1.13385827;stroke-dasharray:none;stroke:#000000;stroke-opacity:1" />
    <path
       d="M187.8 300C187.8 288.14 196.78 275.61 200 275.61C202.88 275.61 200 287.81 200 300C200 309.43 202.78 318.87 200 318.87C196.68 318.87 187.8 309.77 187.8 300"
       stroke="rgba(45, 45, 45, 0.5)"
       stroke-width="2"
       id="path41"
       style="fill:none;fill-opacity:1;stroke-width:1.13385827;stroke-dasharray:none;stroke:#000000;stroke-opacity:1" />
    <path
       d="M90.12 400C90.12 388.27 90.36 375.92 100 375.76C120.3 375.42 125.08 387.25 150 399C150.77 399.37 151.07 399.21 151.39 400C161.43 424.71 168.61 424.43 170.73 450C172.75 474.43 161.87 474.72 159.68 500C157.53 524.72 165.59 526.64 162.05 550C160.75 558.58 156.71 563.89 150 563.89C141.75 563.89 134.51 559.94 132.14 550C126.89 528 134.53 525.01 134.75 500C134.96 475.01 141.95 471.54 133 450C124.57 429.7 115.26 434.13 100 416.33C93.82 409.13 90.12 408.55 90.12 400"
       stroke="rgba(45, 45, 45, 0.5)"
       stroke-width="2"
       id="path42"
       style="fill:none;fill-opacity:1;stroke-width:1.13385827;stroke-dasharray:none;stroke:#000000;stroke-opacity:1" />
    <path
       d="M31.58 500C31.58 492.66 40.95 484.78 50 484.78C58.63 484.78 66.94 492.65 66.94 500C66.94 506.99 58.61 513.46 50 513.46C40.93 513.46 31.58 507 31.58 500"
       stroke="rgba(45, 45, 45, 0.5)"
       stroke-width="2"
       id="path43"
       style="fill:none;fill-opacity:1;stroke-width:1.13385827;stroke-dasharray:none;stroke:#000000;stroke-opacity:1" />
    <path
       d="M59.09 600C59.09 590.18 81.36 590 100 590C105.5 590 107.38 594.2 107.38 600C107.38 616.51 109.6 634.62 100 634.62C85.46 634.62 59.09 612.49 59.09 600"
       stroke="rgba(45, 45, 45, 0.5)"
       stroke-width="2"
       id="path44"
       style="fill:none;fill-opacity:1;stroke-width:1.13385827;stroke-dasharray:none;stroke:#000000;stroke-opacity:1" />
    <path
       d="M42.22 700C44.94 696.19 45.66 694.62 50 694.62C59.27 694.62 67.37 692.07 69.44 700C74.58 719.76 71.55 727.56 64.42 750C61.83 758.15 58.3 761.19 50 761.19C31.35 761.19 12.12 762.52 10.53 750C8.23 731.93 25.2 723.88 42.22 700"
       stroke="rgba(45, 45, 45, 0.5)"
       stroke-width="2"
       id="path45"
       style="fill:none;fill-opacity:1;stroke-width:1.13385827;stroke-dasharray:none;stroke:#000000;stroke-opacity:1" />
    <path
       d="M135.58 750C135.58 744.7 141.83 740.26 150 740.26C172.48 740.26 196.88 744.48 196.88 750C196.88 755.6 172 762.5 150 762.5C141.35 762.5 135.58 755.82 135.58 750"
       stroke="rgba(45, 45, 45, 0.5)"
       stroke-width="2"
       id="path46"
       style="fill:none;fill-opacity:1;stroke-width:1.13385827;stroke-dasharray:none;stroke:#000000;stroke-opacity:1" />
    <path
       d="M185.16 800C197.51 779.15 196.2 752.5 200 752.5C203.62 752.5 200 776.25 200 800C200 825 200 825 200 850C200 854.22 203.61 857.74 200 858.44C178.61 862.56 174.58 862.17 150 859.64C133.58 857.95 118 855.59 118 850C118 844.22 136.43 847 150 836.89C170.01 822 172.51 821.35 185.16 800"
       stroke="rgba(45, 45, 45, 0.5)"
       stroke-width="2"
       id="path47"
       style="fill:none;fill-opacity:1;stroke-width:1.13385827;stroke-dasharray:none;stroke:#000000;stroke-opacity:1" />
    <path
       d="M79.73 950C79.73 944.31 88.66 939.49 100 937.5C123.8 933.31 125.8 933.77 150 937.64C164.91 940.02 178.21 940.32 178.21 950C178.21 964.24 167.44 983.33 150 985.48C128.34 988.14 125.12 972.3 100 959.62C89.99 954.56 79.73 955.37 79.73 950"
       stroke="rgba(45, 45, 45, 0.5)"
       stroke-width="2"
       id="path48"
       style="fill:none;fill-opacity:1;stroke-width:1.13385827;stroke-dasharray:none;stroke:#000000;stroke-opacity:1" />
    <path
       d="M19.12 1000C19.12 988.49 37.22 975.58 50 975.58C58.91 975.58 62.5 988.04 62.5 1000C62.5 1010.35 58.49 1020.19 50 1020.19C36.8 1020.19 19.12 1010.79 19.12 1000"
       stroke="rgba(45, 45, 45, 0.5)"
       stroke-width="2"
       id="path49"
       style="fill:none;fill-opacity:1;stroke-width:1.13385827;stroke-dasharray:none;stroke:#000000;stroke-opacity:1" />
    <path
       d="M0 1082.43C2.22 1082.43 8.44 1090.83 8.44 1100C8.44 1115.09 2.15 1130.95 0 1130.95C-2.07 1130.95 0 1115.47 0 1100C0 1091.22 -2 1082.43 0 1082.43"
       stroke="rgba(45, 45, 45, 0.5)"
       stroke-width="2"
       id="path50"
       style="fill:none;fill-opacity:1;stroke-width:1.13385827;stroke-dasharray:none;stroke:#000000;stroke-opacity:1" />
    <path
       d="M183.33 1100C183.33 1096.45 193.4 1095.45 200 1095.45C201.74 1095.45 200 1097.72 200 1100C200 1105.36 202.92 1110.71 200 1110.71C194.59 1110.71 183.33 1104.08 183.33 1100"
       stroke="rgba(45, 45, 45, 0.5)"
       stroke-width="2"
       id="path51"
       style="fill:none;fill-opacity:1;stroke-width:1.13385827;stroke-dasharray:none;stroke:#000000;stroke-opacity:1" />
    <path
       d="M93.15 1150C93.15 1138.03 96 1126.19 100 1126.19C104.14 1126.19 109.43 1137.98 109.43 1150C109.43 1163.77 104.12 1177.78 100 1177.78C95.98 1177.78 93.15 1163.82 93.15 1150"
       stroke="rgba(45, 45, 45, 0.5)"
       stroke-width="2"
       id="path52"
       style="fill:none;fill-opacity:1;stroke-width:1.13385827;stroke-dasharray:none;stroke:#000000;stroke-opacity:1" />
    <path
       d="M43.18 1200C43.18 1195.94 45.34 1192 50 1192C63.75 1192 80 1195.87 80 1200C80 1204.15 63.63 1208.57 50 1208.57C45.22 1208.57 43.18 1204.23 43.18 1200"
       stroke="rgba(45, 45, 45, 0.5)"
       stroke-width="2"
       id="path53"
       style="fill:none;fill-opacity:1;stroke-width:1.13385827;stroke-dasharray:none;stroke:#000000;stroke-opacity:1" />
    <path
       d="M0 1240.43C3.63 1240.43 11.84 1245.07 11.84 1250C11.84 1255.15 3.55 1260.59 0 1260.59C-2.37 1260.59 0 1255.3 0 1250C0 1245.22 -2.29 1240.43 0 1240.43"
       stroke="rgba(45, 45, 45, 0.5)"
       stroke-width="2"
       id="path54"
       style="fill:none;fill-opacity:1;stroke-width:1.13385827;stroke-dasharray:none;stroke:#000000;stroke-opacity:1" />
    <path
       d="M23.33 1350C23.33 1341.75 39.68 1334 50 1334C55.58 1334 55.13 1341.97 55.13 1350C55.13 1358.66 55.77 1367.39 50 1367.39C39.87 1367.39 23.33 1358.45 23.33 1350"
       stroke="rgba(45, 45, 45, 0.5)"
       stroke-width="2"
       id="path55"
       style="fill:none;fill-opacity:1;stroke-width:1.13385827;stroke-dasharray:none;stroke:#000000;stroke-opacity:1" />
    <path
       d="M148.61 1350C148.61 1349.26 149.25 1348.51 150 1348.51C150.86 1348.51 151.82 1349.26 151.82 1350C151.82 1350.74 150.86 1351.49 150 1351.49C149.25 1351.49 148.61 1350.74 148.61 1350"
       stroke="rgba(45, 45, 45, 0.5)"
       stroke-width="2"
       id="path56"
       style="fill:none;fill-opacity:1;stroke-width:1.13385827;stroke-dasharray:none;stroke:#000000;stroke-opacity:1" />
    <path
       d="M0 1371.88C5.12 1371.88 8.05 1387 18.75 1400C33.05 1417.37 36.82 1414.83 50 1432.61C55.35 1439.83 55.8 1441.36 55.8 1450C55.8 1457.75 56.87 1462.74 50 1465.38C28.97 1473.46 17.54 1476.82 0 1471.43C-7.46 1469.13 0 1460.72 0 1450C0 1425 0 1425 0 1400C0 1385.94 -4.26 1371.88 0 1371.88"
       stroke="rgba(45, 45, 45, 0.5)"
       stroke-width="2"
       id="path57"
       style="fill:none;fill-opacity:1;stroke-width:1.13385827;stroke-dasharray:none;stroke:#000000;stroke-opacity:1" />
    <path
       d="M84.09 1400C84.09 1397.59 92.59 1395.45 100 1395.45C102.98 1395.45 104.86 1397.65 104.86 1400C104.86 1402.5 103.09 1405.15 100 1405.15C92.7 1405.15 84.09 1402.44 84.09 1400"
       stroke="rgba(45, 45, 45, 0.5)"
       stroke-width="2"
       id="path58"
       style="fill:none;fill-opacity:1;stroke-width:1.13385827;stroke-dasharray:none;stroke:#000000;stroke-opacity:1" />
    <path
       d="M192.21 1400C192.21 1395.07 197.79 1390.77 200 1390.77C201.69 1390.77 200 1395.39 200 1400C200 1406.52 201.8 1413.04 200 1413.04C197.9 1413.04 192.21 1406.2 192.21 1400"
       stroke="rgba(45, 45, 45, 0.5)"
       stroke-width="2"
       id="path59"
       style="fill:none;fill-opacity:1;stroke-width:1.13385827;stroke-dasharray:none;stroke:#000000;stroke-opacity:1" />
    <path
       d="M76.47 1500C76.47 1492.32 88.18 1489.61 100 1489.61C112.44 1489.61 125 1492.22 125 1500C125 1510.32 112.3 1525.81 100 1525.81C88.04 1525.81 76.47 1510.42 76.47 1500"
       stroke="rgba(45, 45, 45, 0.5)"
       stroke-width="2"
       id="path60"
       style="fill:none;fill-opacity:1;stroke-width:1.13385827;stroke-dasharray:none;stroke:#000000;stroke-opacity:1" />
    <path
       d="M0 1524C1.9 1524 7.47 1537.35 7.47 1550C7.47 1557.74 1.97 1564.77 0 1564.77C-1.76 1564.77 0 1557.39 0 1550C0 1537 -1.83 1524 0 1524"
       stroke="rgba(45, 45, 45, 0.5)"
       stroke-width="2"
       id="path61"
       style="fill:none;fill-opacity:1;stroke-width:1.13385827;stroke-dasharray:none;stroke:#000000;stroke-opacity:1" />
    <path
       d="M175 1550C186.79 1542.3 191.48 1536.79 200 1536.79C203.98 1536.79 200 1543.39 200 1550C200 1560.94 204.25 1562.43 200 1571.88C193 1587.43 190.57 1587.94 177.5 1600C165.57 1611.01 165.01 1617.29 150 1618.03C126.26 1619.19 124.78 1603.05 100 1603.8C74.78 1604.56 72.17 1622.31 50 1621.05C38.66 1620.41 32.98 1608.76 32.98 1600C32.98 1593.79 40.74 1593.08 50 1591.11C74.25 1585.94 75.56 1591.01 100 1585.71C125.56 1580.17 126.6 1580.58 150 1569.44C164.1 1562.73 161.79 1558.62 175 1550"
       stroke="rgba(45, 45, 45, 0.5)"
       stroke-width="2"
       id="path62"
       style="fill:none;fill-opacity:1;stroke-width:1.13385827;stroke-dasharray:none;stroke:#000000;stroke-opacity:1" />
    <path
       d="M0 1635.23C5.72 1635.23 9.45 1642.41 18.57 1650C34.45 1663.21 35.88 1661.97 50 1676.83C59.64 1686.97 66.1 1687.34 66.1 1700C66.1 1721.55 66.03 1736.65 50 1745.24C32.98 1754.36 14.75 1748.76 0 1735.42C-10.25 1726.14 0 1717.71 0 1700C0 1675 0 1675 0 1650C0 1642.61 -3.56 1635.23 0 1635.23"
       stroke="rgba(45, 45, 45, 0.5)"
       stroke-width="2"
       id="path63"
       style="fill:none;fill-opacity:1;stroke-width:1.13385827;stroke-dasharray:none;stroke:#000000;stroke-opacity:1" />
    <path
       d="M87.63 1850C93.94 1841.64 90.92 1834.08 100 1833.1C122.11 1830.71 125.09 1837.8 150 1843.27C163.55 1846.25 176.92 1847.2 176.92 1850C176.92 1852.75 160.22 1846.51 150 1854.38C127.75 1871.51 129.21 1876.02 111.98 1900C104.21 1910.81 109.77 1915.58 100 1923.96C80.63 1940.58 62.98 1930.6 53.7 1950C44.8 1968.62 64.65 1975.4 63.64 2000C62.8 2020.4 56.62 2040 50 2040C43.42 2040 38.75 2020.46 37.23 2000C35.41 1975.46 40.7 1975.04 43.33 1950C45.95 1925.04 44.55 1924.2 47.73 1900C47.88 1898.86 49.27 1900.24 50 1899.32C69.22 1875.24 68.94 1874.75 87.63 1850"
       stroke="rgba(45, 45, 45, 0.5)"
       stroke-width="2"
       id="path64"
       style="fill:none;fill-opacity:1;stroke-width:1.13385827;stroke-dasharray:none;stroke:#000000;stroke-opacity:1" />
    <path
       d="M193.45 1900C193.45 1884.83 198.35 1867.65 200 1867.65C201.62 1867.65 200 1883.82 200 1900C200 1903.2 201.35 1906.4 200 1906.4C198.07 1906.4 193.45 1904.21 193.45 1900"
       stroke="rgba(45, 45, 45, 0.5)"
       stroke-width="2"
       id="path65"
       style="fill:none;fill-opacity:1;stroke-width:1.13385827;stroke-dasharray:none;stroke:#000000;stroke-opacity:1" />
    <path
       d="M192.05 2000C192.05 1997.35 197.3 1995.73 200 1995.73C201.28 1995.73 200 1997.86 200 2000C200 2003.72 201.61 2007.45 200 2007.45C197.64 2007.45 192.05 2003.21 192.05 2000"
       stroke="rgba(45, 45, 45, 0.5)"
       stroke-width="2"
       id="path66"
       style="fill:none;fill-opacity:1;stroke-width:1.13385827;stroke-dasharray:none;stroke:#000000;stroke-opacity:1" />
    <path
       d="M91.43 2100C91.43 2088.02 92.05 2075 100 2075C112.12 2075 131.58 2089.65 131.58 2100C131.58 2108.81 113.73 2113.33 100 2113.33C93.65 2113.33 91.43 2107.18 91.43 2100"
       stroke="rgba(45, 45, 45, 0.5)"
       stroke-width="2"
       id="path67"
       style="fill:none;fill-opacity:1;stroke-width:1.13385827;stroke-dasharray:none;stroke:#000000;stroke-opacity:1" />
    <path
       d="M162.07 2100C162.07 2091.98 186.68 2082.26 200 2082.26C205.64 2082.26 200 2091.13 200 2100C200 2106.88 204.82 2113.75 200 2113.75C185.86 2113.75 162.07 2107.73 162.07 2100"
       stroke="rgba(45, 45, 45, 0.5)"
       stroke-width="2"
       id="path68"
       style="fill:none;fill-opacity:1;stroke-width:1.13385827;stroke-dasharray:none;stroke:#000000;stroke-opacity:1" />
    <path
       d="M0 2132.65C2.64 2132.65 3.65 2142.25 9.88 2150C28.65 2173.33 28.81 2173.89 50 2194.81C54.14 2198.89 57 2195.46 60.53 2200C78.43 2223.05 92.32 2224.76 92.86 2250C93.39 2274.76 78.25 2275.32 62.67 2300C56.82 2309.28 57.68 2317.92 50 2317.92C39.76 2317.92 29.73 2312.46 26.83 2300C21.83 2278.5 40.75 2272.09 34.21 2250C27.34 2226.78 14.54 2230.63 0 2209.38C-2.57 2205.63 0 2204.69 0 2200C0 2175 0 2175 0 2150C0 2141.32 -2.3 2132.65 0 2132.65"
       stroke="rgba(45, 45, 45, 0.5)"
       stroke-width="2"
       id="path69"
       style="fill:none;fill-opacity:1;stroke-width:1.13385827;stroke-dasharray:none;stroke:#000000;stroke-opacity:1" />
    <path
       d="M134.09 2200C134.09 2195.95 141.87 2191.76 150 2191.76C159.82 2191.76 170 2195.96 170 2200C170 2204.01 159.83 2207.87 150 2207.87C141.88 2207.87 134.09 2204.01 134.09 2200"
       stroke="rgba(45, 45, 45, 0.5)"
       stroke-width="2"
       id="path70"
       style="fill:none;fill-opacity:1;stroke-width:1.13385827;stroke-dasharray:none;stroke:#000000;stroke-opacity:1" />
    <path
       d="M86.36 2400C86.36 2397.63 92.85 2391.28 100 2391.28C109.54 2391.28 119.74 2397.72 119.74 2400C119.74 2402.08 109.87 2400 100 2400C93.18 2400 86.36 2401.99 86.36 2400"
       stroke="rgba(45, 45, 45, 0.5)"
       stroke-width="2"
       id="path71"
       style="fill:none;fill-opacity:1;stroke-width:1.13385827;stroke-dasharray:none;stroke:#000000;stroke-opacity:1" />
    <path
       d="M176.74 2400C176.74 2396.76 192.06 2387.8 200 2387.8C203.69 2387.8 204 2397.9 200 2400C192.37 2404 176.74 2402.86 176.74 2400"
       stroke="rgba(45, 45, 45, 0.5)"
       stroke-width="2"
       id="path72"
       style="fill:none;fill-opacity:1;stroke-width:1.13385827;stroke-dasharray:none;stroke:#000000;stroke-opacity:1" />
  </g>
  <defs
     id="defs72">
    <mask
       id="SvgjsMask1007">
      <rect
         width="200"
         height="2400"
         fill="#ffffff"
         id="rect72" />
    </mask>
  </defs>
</svg>
